<svg width="32" height="33" viewBox="0 0 32 33" fill="none" xmlns="http://www.w3.org/2000/svg">
<path d="M25.3333 4.86377C26.0406 4.86377 26.7189 5.14472 27.219 5.64482C27.719 6.14491 28 6.82319 28 7.53044V26.1971C28 26.9043 27.719 27.5826 27.219 28.0827C26.7189 28.5828 26.0406 28.8638 25.3333 28.8638H6.66667C5.95942 28.8638 5.28115 28.5828 4.78105 28.0827C4.28095 27.5826 4 26.9043 4 26.1971V7.53044C4 6.82319 4.28095 6.14491 4.78105 5.64482C5.28115 5.14472 5.95942 4.86377 6.66667 4.86377H25.3333ZM24.6667 25.5304V18.4638C24.6667 17.311 24.2087 16.2054 23.3936 15.3902C22.5784 14.5751 21.4728 14.1171 20.32 14.1171C19.1867 14.1171 17.8667 14.8104 17.2267 15.8504V14.3704H13.5067V25.5304H17.2267V18.9571C17.2267 17.9304 18.0533 17.0904 19.08 17.0904C19.5751 17.0904 20.0499 17.2871 20.3999 17.6372C20.75 17.9872 20.9467 18.462 20.9467 18.9571V25.5304H24.6667ZM9.17333 12.2771C9.76742 12.2771 10.3372 12.0411 10.7573 11.621C11.1773 11.2009 11.4133 10.6312 11.4133 10.0371C11.4133 8.7971 10.4133 7.78377 9.17333 7.78377C8.57571 7.78377 8.00257 8.02117 7.57999 8.44376C7.1574 8.86634 6.92 9.43948 6.92 10.0371C6.92 11.2771 7.93333 12.2771 9.17333 12.2771ZM11.0267 25.5304V14.3704H7.33333V25.5304H11.0267Z" fill="#00A4F4"/>
</svg>
