<svg width="32" height="33" viewBox="0 0 32 33" fill="none" xmlns="http://www.w3.org/2000/svg">
<path d="M13.6 20.2923L19.828 16.8638L13.6 13.4352V20.2923ZM27.472 11.3438C27.628 11.8809 27.736 12.6009 27.808 13.5152C27.892 14.4295 27.928 15.2181 27.928 15.9038L28 16.8638C28 19.3666 27.808 21.2066 27.472 22.3838C27.172 23.4123 26.476 24.0752 25.396 24.3609C24.832 24.5095 23.8 24.6123 22.216 24.6809C20.656 24.7609 19.228 24.7952 17.908 24.7952L16 24.8638C10.972 24.8638 7.84 24.6809 6.604 24.3609C5.524 24.0752 4.828 23.4123 4.528 22.3838C4.372 21.8466 4.264 21.1266 4.192 20.2123C4.108 19.2981 4.072 18.5095 4.072 17.8238L4 16.8638C4 14.3609 4.192 12.5209 4.528 11.3438C4.828 10.3152 5.524 9.65234 6.604 9.36663C7.168 9.21806 8.2 9.1152 9.784 9.04663C11.344 8.96663 12.772 8.93234 14.092 8.93234L16 8.86377C21.028 8.86377 24.16 9.04663 25.396 9.36663C26.476 9.65234 27.172 10.3152 27.472 11.3438Z" fill="#00A4F4"/>
</svg>
