<svg xmlns="http://www.w3.org/2000/svg" version="1.1" xmlns:xlink="http://www.w3.org/1999/xlink" xmlns:svgjs="http://svgjs.dev/svgjs" viewBox="0 0 16.142868947594362 6.046188450248791"><g transform="matrix(1,0,0,1,5.801025742393218,1.9648631626243958)"><rect width="16.142868947594362" height="16.142868947594362" x="-5.801025742393219" y="-7.013203411297182" fill="#ffffff"></rect><g><path d=" M 0.28200000000000003 1.0649999999999997 Q 0.258 1.0649999999999997 0.24375 1.0514999999999997 Q 0.2295 1.0379999999999998 0.2265 1.0184999999999997 L 0.0555 0.05699999999999972 Q 0.054 0.053999999999999604 0.054 0.05099999999999971 Q 0.054 0.0479999999999996 0.054 0.046499999999999764 Q 0.054 0.03449999999999975 0.063 0.024749999999999606 Q 0.07200000000000001 0.01499999999999968 0.0855 0.01499999999999968 L 0.243 0.01499999999999968 Q 0.28200000000000003 0.01499999999999968 0.28650000000000003 0.046499999999999764 L 0.399 0.6809999999999997 L 0.5205 0.28649999999999975 Q 0.525 0.27449999999999974 0.5355 0.2609999999999997 Q 0.546 0.24749999999999972 0.5700000000000001 0.24749999999999972 L 0.6645 0.24749999999999972 Q 0.6885 0.24749999999999972 0.6990000000000001 0.2609999999999997 Q 0.7095 0.27449999999999974 0.7125 0.28649999999999975 L 0.8355 0.6794999999999998 L 0.9465 0.046499999999999764 Q 0.9510000000000001 0.01499999999999968 0.9915 0.01499999999999968 L 1.149 0.01499999999999968 Q 1.1625 0.01499999999999968 1.1715 0.024749999999999606 Q 1.1805 0.03449999999999975 1.1805 0.046499999999999764 Q 1.1805 0.0479999999999996 1.1805 0.05099999999999971 Q 1.1805 0.053999999999999604 1.179 0.05699999999999972 L 1.008 1.0184999999999997 Q 1.0050000000000001 1.0379999999999998 0.99075 1.0514999999999997 Q 0.9765 1.0649999999999997 0.9525 1.0649999999999997 L 0.8310000000000001 1.0649999999999997 Q 0.807 1.0649999999999997 0.79425 1.0522499999999997 Q 0.7815 1.0394999999999996 0.777 1.0259999999999998 L 0.6165 0.5609999999999997 L 0.4575 1.0259999999999998 Q 0.453 1.0394999999999996 0.44025000000000003 1.0522499999999997 Q 0.4275 1.0649999999999997 0.402 1.0649999999999997 L 0.28200000000000003 1.0649999999999997 M 1.7505036621093752 1.0799999999999996 Q 1.6140036621093752 1.0799999999999996 1.5150036621093752 1.0349999999999997 Q 1.4160036621093752 0.9899999999999998 1.3605036621093753 0.8992499999999997 Q 1.3050036621093752 0.8084999999999998 1.3005036621093753 0.6704999999999997 Q 1.2990036621093752 0.6059999999999997 1.2990036621093752 0.5422499999999997 Q 1.2990036621093752 0.4784999999999997 1.3005036621093753 0.41249999999999976 Q 1.3050036621093752 0.27749999999999975 1.3612536621093752 0.1852499999999997 Q 1.4175036621093753 0.09299999999999975 1.5172536621093753 0.046499999999999764 Q 1.6170036621093753 -2.220446049250313e-16 1.7505036621093752 -2.220446049250313e-16 Q 1.8825036621093751 -2.220446049250313e-16 1.9822536621093754 0.046499999999999764 Q 2.082003662109375 0.09299999999999975 2.139003662109375 0.1852499999999997 Q 2.1960036621093755 0.27749999999999975 2.199003662109375 0.41249999999999976 Q 2.2020036621093753 0.4784999999999997 2.2020036621093753 0.5422499999999997 Q 2.2020036621093753 0.6059999999999997 2.199003662109375 0.6704999999999997 Q 2.1945036621093754 0.8084999999999998 2.139003662109375 0.8992499999999997 Q 2.083503662109375 0.9899999999999998 1.9845036621093752 1.0349999999999997 Q 1.8855036621093753 1.0799999999999996 1.7505036621093752 1.0799999999999996 M 1.7505036621093752 0.8864999999999997 Q 1.8375036621093752 0.8864999999999997 1.8937536621093751 0.8332499999999997 Q 1.9500036621093753 0.7799999999999997 1.9530036621093751 0.6629999999999997 Q 1.9560036621093753 0.5969999999999998 1.9560036621093753 0.5392499999999997 Q 1.9560036621093753 0.4814999999999997 1.9530036621093751 0.4169999999999997 Q 1.951503662109375 0.33899999999999975 1.9245036621093754 0.28949999999999976 Q 1.8975036621093753 0.23999999999999966 1.8532536621093754 0.21674999999999967 Q 1.8090036621093752 0.19349999999999967 1.7505036621093752 0.19349999999999967 Q 1.6920036621093753 0.19349999999999967 1.647003662109375 0.21674999999999967 Q 1.6020036621093752 0.23999999999999966 1.5757536621093753 0.28949999999999976 Q 1.5495036621093752 0.33899999999999975 1.5465036621093753 0.4169999999999997 Q 1.5450036621093752 0.4814999999999997 1.5450036621093752 0.5392499999999997 Q 1.5450036621093752 0.5969999999999998 1.5465036621093753 0.6629999999999997 Q 1.5510036621093752 0.7799999999999997 1.6065036621093753 0.8332499999999997 Q 1.6620036621093752 0.8864999999999997 1.7505036621093752 0.8864999999999997 M 2.817008056640625 1.0799999999999996 Q 2.685008056640625 1.0799999999999996 2.586008056640625 1.0357499999999997 Q 2.487008056640625 0.9914999999999997 2.433008056640625 0.8992499999999997 Q 2.379008056640625 0.8069999999999997 2.379008056640625 0.6644999999999996 L 2.379008056640625 0.05249999999999977 Q 2.379008056640625 0.03599999999999981 2.389508056640625 0.025499999999999634 Q 2.400008056640625 0.01499999999999968 2.416508056640625 0.01499999999999968 L 2.580008056640625 0.01499999999999968 Q 2.596508056640625 0.01499999999999968 2.607008056640625 0.025499999999999634 Q 2.617508056640625 0.03599999999999981 2.617508056640625 0.05249999999999977 L 2.617508056640625 0.6629999999999997 Q 2.617508056640625 0.7739999999999998 2.670008056640625 0.8279999999999997 Q 2.722508056640625 0.8819999999999997 2.817008056640625 0.8819999999999997 Q 2.910008056640625 0.8819999999999997 2.962508056640625 0.8279999999999997 Q 3.015008056640625 0.7739999999999998 3.015008056640625 0.6629999999999997 L 3.015008056640625 0.05249999999999977 Q 3.015008056640625 0.03599999999999981 3.026258056640625 0.025499999999999634 Q 3.037508056640625 0.01499999999999968 3.052508056640625 0.01499999999999968 L 3.217508056640625 0.01499999999999968 Q 3.232508056640625 0.01499999999999968 3.243008056640625 0.025499999999999634 Q 3.253508056640625 0.03599999999999981 3.253508056640625 0.05249999999999977 L 3.253508056640625 0.6644999999999996 Q 3.253508056640625 0.8069999999999997 3.199508056640625 0.8992499999999997 Q 3.145508056640625 0.9914999999999997 3.048008056640625 1.0357499999999997 Q 2.9505080566406248 1.0799999999999996 2.817008056640625 1.0799999999999996 M 3.503999267578125 1.0649999999999997 Q 3.487499267578125 1.0649999999999997 3.476999267578125 1.0544999999999998 Q 3.466499267578125 1.0439999999999998 3.466499267578125 1.0274999999999996 L 3.466499267578125 0.05249999999999977 Q 3.466499267578125 0.03599999999999981 3.476999267578125 0.025499999999999634 Q 3.487499267578125 0.01499999999999968 3.503999267578125 0.01499999999999968 L 3.640499267578125 0.01499999999999968 Q 3.662999267578125 0.01499999999999968 3.673499267578125 0.025499999999999634 Q 3.683999267578125 0.03599999999999981 3.686999267578125 0.04199999999999959 L 4.087499267578125 0.6674999999999998 L 4.087499267578125 0.05249999999999977 Q 4.087499267578125 0.03599999999999981 4.097999267578125 0.025499999999999634 Q 4.108499267578125 0.01499999999999968 4.123499267578125 0.01499999999999968 L 4.276499267578125 0.01499999999999968 Q 4.292999267578125 0.01499999999999968 4.303499267578125 0.025499999999999634 Q 4.313999267578125 0.03599999999999981 4.313999267578125 0.05249999999999977 L 4.313999267578125 1.0274999999999996 Q 4.313999267578125 1.0424999999999998 4.303499267578125 1.0537499999999997 Q 4.292999267578125 1.0649999999999997 4.276499267578125 1.0649999999999997 L 4.138499267578125 1.0649999999999997 Q 4.115999267578125 1.0649999999999997 4.106249267578125 1.0537499999999997 Q 4.096499267578125 1.0424999999999998 4.091999267578125 1.0379999999999998 L 3.692999267578125 0.4319999999999997 L 3.692999267578125 1.0274999999999996 Q 3.692999267578125 1.0439999999999998 3.682499267578125 1.0544999999999998 Q 3.671999267578125 1.0649999999999997 3.655499267578125 1.0649999999999997 L 3.503999267578125 1.0649999999999997 M 4.573518310546875 1.0649999999999997 Q 4.557018310546875 1.0649999999999997 4.546518310546875 1.0544999999999998 Q 4.536018310546875 1.0439999999999998 4.536018310546875 1.0274999999999996 L 4.536018310546875 0.05249999999999977 Q 4.536018310546875 0.03599999999999981 4.546518310546875 0.025499999999999634 Q 4.557018310546875 0.01499999999999968 4.573518310546875 0.01499999999999968 L 4.950018310546875 0.01499999999999968 Q 5.100018310546875 0.01499999999999968 5.200518310546875 0.062249999999999694 Q 5.301018310546875 0.10949999999999971 5.354268310546875 0.2002499999999997 Q 5.407518310546875 0.2909999999999997 5.410518310546875 0.42449999999999977 Q 5.412018310546875 0.4904999999999997 5.412018310546875 0.5399999999999997 Q 5.412018310546875 0.5894999999999997 5.410518310546875 0.6539999999999997 Q 5.406018310546875 0.7934999999999997 5.355018310546875 0.8849999999999998 Q 5.304018310546875 0.9764999999999997 5.205018310546875 1.0207499999999998 Q 5.106018310546875 1.0649999999999997 4.957518310546875 1.0649999999999997 L 4.573518310546875 1.0649999999999997 M 4.774518310546875 0.8714999999999997 L 4.950018310546875 0.8714999999999997 Q 5.025018310546875 0.8714999999999997 5.073018310546875 0.8489999999999998 Q 5.121018310546875 0.8264999999999997 5.144268310546875 0.7777499999999997 Q 5.167518310546875 0.7289999999999996 5.169018310546875 0.6509999999999997 Q 5.170518310546875 0.6074999999999997 5.171268310546875 0.5729999999999997 Q 5.172018310546875 0.5384999999999998 5.171268310546875 0.5039999999999997 Q 5.170518310546875 0.4694999999999997 5.169018310546875 0.42749999999999966 Q 5.166018310546875 0.3149999999999997 5.111268310546875 0.2617499999999997 Q 5.056518310546875 0.20849999999999969 4.942518310546875 0.20849999999999969 L 4.774518310546875 0.20849999999999969 L 4.774518310546875 0.8714999999999997 M 6.0164948730468755 1.0799999999999996 Q 5.8754948730468755 1.0799999999999996 5.777244873046875 1.0327499999999996 Q 5.678994873046875 0.9854999999999997 5.624994873046875 0.8947499999999997 Q 5.570994873046875 0.8039999999999997 5.564994873046875 0.6734999999999998 Q 5.563494873046875 0.6119999999999997 5.563494873046875 0.5414999999999998 Q 5.563494873046875 0.47099999999999975 5.564994873046875 0.40649999999999975 Q 5.570994873046875 0.27749999999999975 5.625744873046875 0.18674999999999975 Q 5.680494873046875 0.09599999999999975 5.779494873046875 0.0479999999999996 Q 5.878494873046875 -2.220446049250313e-16 6.0164948730468755 -2.220446049250313e-16 Q 6.116994873046875 -2.220446049250313e-16 6.199494873046875 0.025499999999999634 Q 6.281994873046875 0.05099999999999971 6.341994873046875 0.09899999999999975 Q 6.401994873046875 0.1469999999999997 6.434994873046875 0.2114999999999997 Q 6.467994873046875 0.2759999999999997 6.470994873046875 0.3554999999999997 Q 6.470994873046875 0.36899999999999966 6.461244873046875 0.37799999999999967 Q 6.451494873046875 0.3869999999999997 6.4379948730468755 0.3869999999999997 L 6.266994873046875 0.3869999999999997 Q 6.248994873046875 0.3869999999999997 6.238494873046875 0.37799999999999967 Q 6.227994873046875 0.36899999999999966 6.221994873046875 0.34799999999999975 Q 6.199494873046875 0.25949999999999973 6.146994873046875 0.2264999999999997 Q 6.094494873046875 0.19349999999999967 6.0164948730468755 0.19349999999999967 Q 5.923494873046875 0.19349999999999967 5.869494873046875 0.24449999999999972 Q 5.815494873046875 0.29549999999999976 5.810994873046875 0.4139999999999997 Q 5.806494873046875 0.5369999999999997 5.810994873046875 0.6659999999999997 Q 5.815494873046875 0.7844999999999998 5.869494873046875 0.8354999999999997 Q 5.923494873046875 0.8864999999999997 6.0164948730468755 0.8864999999999997 Q 6.094494873046875 0.8864999999999997 6.147744873046875 0.8527499999999997 Q 6.200994873046875 0.8189999999999997 6.221994873046875 0.7319999999999998 Q 6.227994873046875 0.7094999999999998 6.238494873046875 0.7012499999999997 Q 6.248994873046875 0.6929999999999997 6.266994873046875 0.6929999999999997 L 6.4379948730468755 0.6929999999999997 Q 6.451494873046875 0.6929999999999997 6.461244873046875 0.7019999999999997 Q 6.470994873046875 0.7109999999999997 6.470994873046875 0.7244999999999997 Q 6.467994873046875 0.8039999999999997 6.434994873046875 0.8684999999999997 Q 6.401994873046875 0.9329999999999997 6.341994873046875 0.9809999999999998 Q 6.281994873046875 1.0289999999999997 6.199494873046875 1.0544999999999998 Q 6.116994873046875 1.0799999999999996 6.0164948730468755 1.0799999999999996 M 6.5640263671875 1.0649999999999997 Q 6.5505263671875 1.0649999999999997 6.5415263671875 1.0552499999999998 Q 6.5325263671875 1.0454999999999997 6.5325263671875 1.0334999999999996 Q 6.5325263671875 1.0259999999999998 6.5340263671875 1.0199999999999998 L 6.8910263671875 0.05549999999999966 Q 6.8955263671875 0.0389999999999997 6.9090263671875 0.02699999999999969 Q 6.9225263671875 0.01499999999999968 6.9465263671875 0.01499999999999968 L 7.1385263671875 0.01499999999999968 Q 7.1625263671875 0.01499999999999968 7.1760263671875 0.02699999999999969 Q 7.1895263671875 0.0389999999999997 7.1940263671875 0.05549999999999966 L 7.5510263671875 1.0199999999999998 Q 7.5525263671875 1.0259999999999998 7.5525263671875 1.0334999999999996 Q 7.5525263671875 1.0454999999999997 7.5435263671875 1.0552499999999998 Q 7.5345263671875 1.0649999999999997 7.5210263671875 1.0649999999999997 L 7.3650263671875 1.0649999999999997 Q 7.3425263671875 1.0649999999999997 7.3320263671875 1.0544999999999998 Q 7.3215263671875 1.0439999999999998 7.3185263671875 1.0349999999999997 L 7.2540263671875 0.8669999999999998 L 6.8310263671875 0.8669999999999998 L 6.7665263671875 1.0349999999999997 Q 6.7635263671875 1.0439999999999998 6.7530263671875 1.0544999999999998 Q 6.7425263671875 1.0649999999999997 6.7200263671875 1.0649999999999997 L 6.5640263671875 1.0649999999999997 M 6.8865263671875 0.6734999999999998 L 7.1970263671875 0.6734999999999998 L 7.0425263671875005 0.24149999999999971 L 6.8865263671875 0.6734999999999998 M 7.71899560546875 1.0649999999999997 Q 7.70249560546875 1.0649999999999997 7.69199560546875 1.0544999999999998 Q 7.68149560546875 1.0439999999999998 7.68149560546875 1.0274999999999996 L 7.68149560546875 0.05249999999999977 Q 7.68149560546875 0.03599999999999981 7.69199560546875 0.025499999999999634 Q 7.70249560546875 0.01499999999999968 7.71899560546875 0.01499999999999968 L 8.11649560546875 0.01499999999999968 Q 8.30399560546875 0.01499999999999968 8.41199560546875 0.10124999999999973 Q 8.51999560546875 0.18749999999999967 8.51999560546875 0.3494999999999997 Q 8.51999560546875 0.45899999999999974 8.46749560546875 0.5324999999999998 Q 8.41499560546875 0.6059999999999997 8.32649560546875 0.6419999999999997 L 8.53799560546875 1.0169999999999997 Q 8.54249560546875 1.0259999999999998 8.54249560546875 1.0334999999999996 Q 8.54249560546875 1.0454999999999997 8.53349560546875 1.0552499999999998 Q 8.52449560546875 1.0649999999999997 8.51099560546875 1.0649999999999997 L 8.344495605468751 1.0649999999999997 Q 8.31749560546875 1.0649999999999997 8.30399560546875 1.0507499999999996 Q 8.29049560546875 1.0364999999999998 8.28449560546875 1.0244999999999997 L 8.10149560546875 0.6809999999999997 L 7.91999560546875 0.6809999999999997 L 7.91999560546875 1.0274999999999996 Q 7.91999560546875 1.0439999999999998 7.90949560546875 1.0544999999999998 Q 7.89899560546875 1.0649999999999997 7.88249560546875 1.0649999999999997 L 7.71899560546875 1.0649999999999997 M 7.91999560546875 0.4904999999999997 L 8.11199560546875 0.4904999999999997 Q 8.19449560546875 0.4904999999999997 8.23424560546875 0.45299999999999974 Q 8.27399560546875 0.41549999999999976 8.27399560546875 0.34799999999999975 Q 8.27399560546875 0.28049999999999975 8.23499560546875 0.24149999999999971 Q 8.19599560546875 0.20249999999999968 8.11199560546875 0.20249999999999968 L 7.91999560546875 0.20249999999999968 L 7.91999560546875 0.4904999999999997 M 8.742005859375 1.0649999999999997 Q 8.725505859375 1.0649999999999997 8.715005859375 1.0544999999999998 Q 8.704505859375 1.0439999999999998 8.704505859375 1.0274999999999996 L 8.704505859375 0.05249999999999977 Q 8.704505859375 0.03599999999999981 8.715005859375 0.025499999999999634 Q 8.725505859375 0.01499999999999968 8.742005859375 0.01499999999999968 L 9.421505859375 0.01499999999999968 Q 9.438005859375 0.01499999999999968 9.448505859375 0.025499999999999634 Q 9.459005859375 0.03599999999999981 9.459005859375 0.05249999999999977 L 9.459005859375 0.17249999999999965 Q 9.459005859375 0.18749999999999967 9.448505859375 0.19799999999999973 Q 9.438005859375 0.20849999999999969 9.421505859375 0.20849999999999969 L 8.935505859375 0.20849999999999969 L 8.935505859375 0.44399999999999973 L 9.388505859375 0.44399999999999973 Q 9.405005859375 0.44399999999999973 9.415505859375 0.4544999999999997 Q 9.426005859375 0.46499999999999975 9.426005859375 0.4814999999999997 L 9.426005859375 0.5924999999999997 Q 9.426005859375 0.6074999999999997 9.415505859375 0.6179999999999997 Q 9.405005859375 0.6284999999999997 9.388505859375 0.6284999999999997 L 8.935505859375 0.6284999999999997 L 8.935505859375 0.8714999999999997 L 9.433505859375 0.8714999999999997 Q 9.450005859375 0.8714999999999997 9.460505859375 0.8819999999999997 Q 9.471005859375 0.8924999999999997 9.471005859375 0.9089999999999997 L 9.471005859375 1.0274999999999996 Q 9.471005859375 1.0439999999999998 9.460505859375 1.0544999999999998 Q 9.450005859375 1.0649999999999997 9.433505859375 1.0649999999999997 L 8.742005859375 1.0649999999999997" fill="#00a4f4" fill-rule="nonzero"></path></g><g><path d=" M 0.32772825 2.1261296249999995 Q 0.23878725 2.1261296249999995 0.180298875 2.0932601249999996 Q 0.1218105 2.0603906249999997 0.09184125 2.0014188749999997 Q 0.061872 1.9424471249999995 0.05897175 1.8641403749999994 Q 0.058005 1.8245036249999995 0.058005 1.7790663749999995 Q 0.058005 1.7336291249999995 0.05897175 1.6920588749999994 Q 0.061872 1.6137521249999995 0.09184125 1.5547803749999995 Q 0.1218105 1.4958086249999996 0.180298875 1.4629391249999995 Q 0.23878725 1.4300696249999993 0.32772825 1.4300696249999993 Q 0.394434 1.4300696249999993 0.444705 1.4484378749999995 Q 0.494976 1.4668061249999995 0.528328875 1.4977421249999994 Q 0.56168175 1.5286781249999994 0.57908325 1.5668647499999995 Q 0.59648475 1.6050513749999995 0.59841825 1.6456548749999995 Q 0.5993850000000001 1.6543556249999996 0.593101125 1.6601561249999994 Q 0.5868172500000001 1.6659566249999995 0.5781165 1.6659566249999995 L 0.52494525 1.6659566249999995 Q 0.5162445 1.6659566249999995 0.5099606250000001 1.6611228749999996 Q 0.50367675 1.6562891249999996 0.5007765000000001 1.6437213749999995 Q 0.48434175 1.5683148749999996 0.43938787500000004 1.5402791249999996 Q 0.394434 1.5122433749999995 0.32772825 1.5122433749999995 Q 0.24942150000000002 1.5122433749999995 0.20398425 1.5562304999999994 Q 0.15854700000000002 1.6002176249999995 0.15564675 1.6968926249999994 Q 0.1527465 1.7761661249999996 0.15564675 1.8593066249999994 Q 0.15854700000000002 1.9559816249999995 0.20398425 1.9999687499999994 Q 0.24942150000000002 2.0439558749999995 0.32772825 2.0439558749999995 Q 0.394434 2.0439558749999995 0.43938787500000004 2.0159201249999996 Q 0.48434175 1.9878843749999995 0.5007765000000001 1.9124778749999995 Q 0.50367675 1.8999101249999995 0.5099606250000001 1.8950763749999995 Q 0.5162445 1.8902426249999995 0.52494525 1.8902426249999995 L 0.5781165 1.8902426249999995 Q 0.5868172500000001 1.8902426249999995 0.593101125 1.8955597499999994 Q 0.5993850000000001 1.9008768749999996 0.59841825 1.9095776249999996 Q 0.59648475 1.9501811249999994 0.57908325 1.9888511249999996 Q 0.56168175 2.0275211249999994 0.528328875 2.0584571249999994 Q 0.494976 2.0893931249999995 0.444705 2.1077613749999995 Q 0.394434 2.1261296249999995 0.32772825 2.1261296249999995 M 0.97643260546875 2.1261296249999995 Q 0.89329210546875 2.1261296249999995 0.83432035546875 2.0976104999999996 Q 0.7753486054687501 2.0690913749999997 0.7434458554687501 2.0096362499999993 Q 0.71154310546875 1.9501811249999994 0.70767610546875 1.8602733749999996 Q 0.70670935546875 1.8177363749999995 0.70670935546875 1.7785829999999996 Q 0.70670935546875 1.7394296249999994 0.70767610546875 1.6968926249999994 Q 0.71154310546875 1.6079516249999997 0.74489598046875 1.5484964999999995 Q 0.7782488554687501 1.4890413749999993 0.83770398046875 1.4595554999999996 Q 0.89715910546875 1.4300696249999993 0.97643260546875 1.4300696249999993 Q 1.05473935546875 1.4300696249999993 1.11419448046875 1.4595554999999996 Q 1.17364960546875 1.4890413749999993 1.2074858554687502 1.5484964999999995 Q 1.24132210546875 1.6079516249999997 1.2442223554687502 1.6968926249999994 Q 1.24615585546875 1.7394296249999994 1.24615585546875 1.7785829999999996 Q 1.24615585546875 1.8177363749999995 1.2442223554687502 1.8602733749999996 Q 1.24132210546875 1.9501811249999994 1.20893598046875 2.0096362499999993 Q 1.1765498554687501 2.0690913749999997 1.1175781054687501 2.0976104999999996 Q 1.0586063554687501 2.1261296249999995 0.97643260546875 2.1261296249999995 M 0.97643260546875 2.0439558749999995 Q 1.0499056054687501 2.0439558749999995 1.09679298046875 1.9994853749999995 Q 1.14368035546875 1.9550148749999996 1.14754735546875 1.8554396249999996 Q 1.1494808554687501 1.8119358749999996 1.1494808554687501 1.7776162499999995 Q 1.1494808554687501 1.7432966249999995 1.14754735546875 1.7007596249999994 Q 1.14561385546875 1.6340538749999995 1.12289523046875 1.5924836249999994 Q 1.10017660546875 1.5509133749999995 1.06247335546875 1.5315783749999996 Q 1.0247701054687501 1.5122433749999995 0.97643260546875 1.5122433749999995 Q 0.9280951054687501 1.5122433749999995 0.89039185546875 1.5315783749999996 Q 0.85268860546875 1.5509133749999995 0.82996998046875 1.5924836249999994 Q 0.80725135546875 1.6340538749999995 0.80435110546875 1.7007596249999994 Q 0.8033843554687501 1.7432966249999995 0.8033843554687501 1.7776162499999995 Q 0.8033843554687501 1.8119358749999996 0.80435110546875 1.8554396249999996 Q 0.8082181054687501 1.9550148749999996 0.8555888554687501 1.9994853749999995 Q 0.9029596054687501 2.0439558749999995 0.97643260546875 2.0439558749999995 M 1.4143722436523438 2.1164621249999995 Q 1.4037379936523438 2.1164621249999995 1.3979374936523439 2.1101782499999997 Q 1.3921369936523438 2.1038943749999994 1.3921369936523438 2.0942268749999995 L 1.3921369936523438 1.4629391249999995 Q 1.3921369936523438 1.4523048749999994 1.3979374936523439 1.4460209999999996 Q 1.4037379936523438 1.4397371249999995 1.4143722436523438 1.4397371249999995 L 1.458842743652344 1.4397371249999995 Q 1.4704437436523439 1.4397371249999995 1.4762442436523437 1.4450542499999997 Q 1.4820447436523438 1.4503713749999996 1.4830114936523437 1.4532716249999995 L 1.8039724936523438 1.9463141249999996 L 1.8039724936523438 1.4629391249999995 Q 1.8039724936523438 1.4523048749999994 1.8097729936523437 1.4460209999999996 Q 1.815573493652344 1.4397371249999995 1.8262077436523438 1.4397371249999995 L 1.8726117436523437 1.4397371249999995 Q 1.8832459936523438 1.4397371249999995 1.8895298686523438 1.4460209999999996 Q 1.895813743652344 1.4523048749999994 1.895813743652344 1.4629391249999995 L 1.895813743652344 2.0932601249999996 Q 1.895813743652344 2.1029276249999995 1.8895298686523438 2.1096948749999997 Q 1.8832459936523438 2.1164621249999995 1.8735784936523439 2.1164621249999995 L 1.8271744936523437 2.1164621249999995 Q 1.816540243652344 2.1164621249999995 1.811223118652344 2.1106616249999997 Q 1.8059059936523438 2.1048611249999993 1.8039724936523438 2.1029276249999995 L 1.4839782436523439 1.6147188749999994 L 1.4839782436523439 2.0942268749999995 Q 1.4839782436523439 2.1038943749999994 1.4776943686523438 2.1101782499999997 Q 1.4714104936523438 2.1164621249999995 1.4607762436523437 2.1164621249999995 L 1.4143722436523438 2.1164621249999995 M 2.0911043243408205 2.1164621249999995 Q 2.08047007434082 2.1164621249999995 2.0746695743408203 2.1101782499999997 Q 2.0688690743408205 2.1038943749999994 2.0688690743408205 2.0942268749999995 L 2.0688690743408205 1.4629391249999995 Q 2.0688690743408205 1.4523048749999994 2.0746695743408203 1.4460209999999996 Q 2.08047007434082 1.4397371249999995 2.0911043243408205 1.4397371249999995 L 2.13557482434082 1.4397371249999995 Q 2.1471758243408203 1.4397371249999995 2.15297632434082 1.4450542499999997 Q 2.15877682434082 1.4503713749999996 2.1597435743408204 1.4532716249999995 L 2.4807045743408205 1.9463141249999996 L 2.4807045743408205 1.4629391249999995 Q 2.4807045743408205 1.4523048749999994 2.4865050743408204 1.4460209999999996 Q 2.4923055743408202 1.4397371249999995 2.50293982434082 1.4397371249999995 L 2.5493438243408204 1.4397371249999995 Q 2.5599780743408203 1.4397371249999995 2.56626194934082 1.4460209999999996 Q 2.5725458243408204 1.4523048749999994 2.5725458243408204 1.4629391249999995 L 2.5725458243408204 2.0932601249999996 Q 2.5725458243408204 2.1029276249999995 2.56626194934082 2.1096948749999997 Q 2.5599780743408203 2.1164621249999995 2.5503105743408203 2.1164621249999995 L 2.5039065743408204 2.1164621249999995 Q 2.49327232434082 2.1164621249999995 2.48795519934082 2.1106616249999997 Q 2.4826380743408203 2.1048611249999993 2.4807045743408205 2.1029276249999995 L 2.1607103243408203 1.6147188749999994 L 2.1607103243408203 2.0942268749999995 Q 2.1607103243408203 2.1038943749999994 2.1544264493408205 2.1101782499999997 Q 2.1481425743408202 2.1164621249999995 2.1375083243408204 2.1164621249999995 L 2.0911043243408205 2.1164621249999995 M 2.767836405029297 2.1164621249999995 Q 2.757202155029297 2.1164621249999995 2.751401655029297 2.1101782499999997 Q 2.745601155029297 2.1038943749999994 2.745601155029297 2.0942268749999995 L 2.745601155029297 1.4629391249999995 Q 2.745601155029297 1.4523048749999994 2.751401655029297 1.4460209999999996 Q 2.757202155029297 1.4397371249999995 2.767836405029297 1.4397371249999995 L 3.167104155029297 1.4397371249999995 Q 3.177738405029297 1.4397371249999995 3.183538905029297 1.4460209999999996 Q 3.189339405029297 1.4523048749999994 3.189339405029297 1.4629391249999995 L 3.189339405029297 1.4996756249999996 Q 3.189339405029297 1.5103098749999995 3.183538905029297 1.5161103749999993 Q 3.177738405029297 1.5219108749999994 3.167104155029297 1.5219108749999994 L 2.838409155029297 1.5219108749999994 L 2.838409155029297 1.7336291249999995 L 3.145835655029297 1.7336291249999995 Q 3.156469905029297 1.7336291249999995 3.162270405029297 1.7399129999999996 Q 3.168070905029297 1.7461968749999994 3.168070905029297 1.7568311249999995 L 3.168070905029297 1.7926008749999995 Q 3.168070905029297 1.8022683749999995 3.162270405029297 1.8085522499999995 Q 3.156469905029297 1.8148361249999996 3.145835655029297 1.8148361249999996 L 2.838409155029297 1.8148361249999996 L 2.838409155029297 2.0342883749999996 L 3.1748381550292972 2.0342883749999996 Q 3.185472405029297 2.0342883749999996 3.191272905029297 2.0400888749999995 Q 3.197073405029297 2.0458893749999993 3.197073405029297 2.0565236249999996 L 3.197073405029297 2.0942268749999995 Q 3.197073405029297 2.1038943749999994 3.191272905029297 2.1101782499999997 Q 3.185472405029297 2.1164621249999995 3.1748381550292972 2.1164621249999995 L 2.767836405029297 2.1164621249999995 M 3.5731382109375 2.1261296249999995 Q 3.4841972109375003 2.1261296249999995 3.4257088359375003 2.0932601249999996 Q 3.3672204609375003 2.0603906249999997 3.3372512109375 2.0014188749999997 Q 3.3072819609375004 1.9424471249999995 3.3043817109375 1.8641403749999994 Q 3.3034149609375003 1.8245036249999995 3.3034149609375003 1.7790663749999995 Q 3.3034149609375003 1.7336291249999995 3.3043817109375 1.6920588749999994 Q 3.3072819609375004 1.6137521249999995 3.3372512109375 1.5547803749999995 Q 3.3672204609375003 1.4958086249999996 3.4257088359375003 1.4629391249999995 Q 3.4841972109375003 1.4300696249999993 3.5731382109375 1.4300696249999993 Q 3.6398439609375 1.4300696249999993 3.6901149609375 1.4484378749999995 Q 3.7403859609375 1.4668061249999995 3.7737388359375004 1.4977421249999994 Q 3.8070917109375 1.5286781249999994 3.8244932109375003 1.5668647499999995 Q 3.8418947109375003 1.6050513749999995 3.8438282109375 1.6456548749999995 Q 3.8447949609375005 1.6543556249999996 3.8385110859375002 1.6601561249999994 Q 3.8322272109375004 1.6659566249999995 3.8235264609375004 1.6659566249999995 L 3.7703552109375003 1.6659566249999995 Q 3.7616544609375 1.6659566249999995 3.7553705859375004 1.6611228749999996 Q 3.7490867109375 1.6562891249999996 3.7461864609375004 1.6437213749999995 Q 3.7297517109375002 1.5683148749999996 3.6847978359375 1.5402791249999996 Q 3.6398439609375 1.5122433749999995 3.5731382109375 1.5122433749999995 Q 3.4948314609375 1.5122433749999995 3.4493942109375 1.5562304999999994 Q 3.4039569609375 1.6002176249999995 3.4010567109375 1.6968926249999994 Q 3.3981564609375003 1.7761661249999996 3.4010567109375 1.8593066249999994 Q 3.4039569609375 1.9559816249999995 3.4493942109375 1.9999687499999994 Q 3.4948314609375 2.0439558749999995 3.5731382109375 2.0439558749999995 Q 3.6398439609375 2.0439558749999995 3.6847978359375 2.0159201249999996 Q 3.7297517109375002 1.9878843749999995 3.7461864609375004 1.9124778749999995 Q 3.7490867109375 1.8999101249999995 3.7553705859375004 1.8950763749999995 Q 3.7616544609375 1.8902426249999995 3.7703552109375003 1.8902426249999995 L 3.8235264609375004 1.8902426249999995 Q 3.8322272109375004 1.8902426249999995 3.8385110859375002 1.8955597499999994 Q 3.8447949609375005 1.9008768749999996 3.8438282109375 1.9095776249999996 Q 3.8418947109375003 1.9501811249999994 3.8244932109375003 1.9888511249999996 Q 3.8070917109375 2.0275211249999994 3.7737388359375004 2.0584571249999994 Q 3.7403859609375 2.0893931249999995 3.6901149609375 2.1077613749999995 Q 3.6398439609375 2.1261296249999995 3.5731382109375 2.1261296249999995 M 4.1483695664062505 2.1164621249999995 Q 4.138702066406251 2.1164621249999995 4.13241819140625 2.1101782499999997 Q 4.12613431640625 2.1038943749999994 4.12613431640625 2.0942268749999995 L 4.12613431640625 1.5257778749999995 L 3.94051831640625 1.5257778749999995 Q 3.93085081640625 1.5257778749999995 3.9245669414062503 1.5194939999999995 Q 3.91828306640625 1.5132101249999996 3.91828306640625 1.5035426249999995 L 3.91828306640625 1.4629391249999995 Q 3.91828306640625 1.4523048749999994 3.9245669414062503 1.4460209999999996 Q 3.93085081640625 1.4397371249999995 3.94051831640625 1.4397371249999995 L 4.40649181640625 1.4397371249999995 Q 4.41712606640625 1.4397371249999995 4.42340994140625 1.4460209999999996 Q 4.4296938164062505 1.4523048749999994 4.4296938164062505 1.4629391249999995 L 4.4296938164062505 1.5035426249999995 Q 4.4296938164062505 1.5132101249999996 4.42340994140625 1.5194939999999995 Q 4.41712606640625 1.5257778749999995 4.40649181640625 1.5257778749999995 L 4.22184256640625 1.5257778749999995 L 4.22184256640625 2.0942268749999995 Q 4.22184256640625 2.1038943749999994 4.21555869140625 2.1101782499999997 Q 4.20927481640625 2.1164621249999995 4.19864056640625 2.1164621249999995 L 4.1483695664062505 2.1164621249999995 M 4.756408111816406 2.1261296249999995 Q 4.672300861816407 2.1261296249999995 4.615262611816407 2.1000273749999994 Q 4.558224361816406 2.0739251249999997 4.5277717368164065 2.0328382499999997 Q 4.497319111816407 1.9917513749999995 4.495385611816406 1.9463141249999996 Q 4.495385611816406 1.9385801249999994 4.501669486816406 1.9322962499999996 Q 4.507953361816407 1.9260123749999996 4.516654111816407 1.9260123749999996 L 4.565958361816406 1.9260123749999996 Q 4.577559361816407 1.9260123749999996 4.583359861816406 1.9318128749999994 Q 4.589160361816407 1.9376133749999995 4.5910938618164066 1.9453473749999994 Q 4.596894361816407 1.9685493749999996 4.615262611816407 1.9912679999999996 Q 4.633630861816407 2.0139866249999994 4.667950486816407 2.0289712499999997 Q 4.702270111816406 2.0439558749999995 4.756408111816406 2.0439558749999995 Q 4.839548611816406 2.0439558749999995 4.878701986816407 2.0144699999999993 Q 4.9178553618164065 1.9849841249999995 4.9178553618164065 1.9356798749999995 Q 4.9178553618164065 1.9018436249999995 4.897070236816407 1.8810584999999995 Q 4.876285111816407 1.8602733749999996 4.833748111816407 1.8438386249999996 Q 4.7912111118164065 1.8274038749999995 4.723538611816407 1.8080688749999996 Q 4.652965861816407 1.7877671249999996 4.606561861816407 1.7635983749999995 Q 4.560157861816407 1.7394296249999994 4.5374392368164065 1.7036598749999996 Q 4.514720611816407 1.6678901249999996 4.514720611816407 1.6127853749999996 Q 4.514720611816407 1.5605808749999994 4.542756361816407 1.5194939999999995 Q 4.570792111816407 1.4784071249999995 4.623963361816407 1.4542383749999996 Q 4.677134611816407 1.4300696249999993 4.751574361816407 1.4300696249999993 Q 4.811512861816406 1.4300696249999993 4.856466736816406 1.4460209999999996 Q 4.901420611816406 1.4619723749999995 4.931389861816407 1.4885579999999994 Q 4.961359111816407 1.5151436249999994 4.976827111816407 1.5455962499999996 Q 4.992295111816406 1.5760488749999995 4.993261861816407 1.6050513749999995 Q 4.993261861816407 1.6118186249999995 4.988428111816407 1.6181024999999996 Q 4.983594361816406 1.6243863749999994 4.972960111816406 1.6243863749999994 L 4.921722361816407 1.6243863749999994 Q 4.914955111816407 1.6243863749999994 4.907704486816407 1.6205193749999995 Q 4.900453861816406 1.6166523749999995 4.896586861816407 1.6060181249999994 Q 4.8907863618164065 1.5663813749999995 4.852116361816407 1.5393123749999995 Q 4.813446361816407 1.5122433749999995 4.751574361816407 1.5122433749999995 Q 4.688735611816407 1.5122433749999995 4.649582236816407 1.5364121249999996 Q 4.610428861816406 1.5605808749999994 4.610428861816406 1.6118186249999995 Q 4.610428861816406 1.6446881249999996 4.628797111816406 1.6664399999999995 Q 4.647165361816406 1.6881918749999996 4.686802111816407 1.7046266249999995 Q 4.726438861816407 1.7210613749999994 4.790244361816407 1.7394296249999994 Q 4.867584361816407 1.7606981249999996 4.916888611816407 1.7843834999999995 Q 4.966192861816406 1.8080688749999996 4.9898782368164065 1.8433552499999994 Q 5.013563611816407 1.8786416249999995 5.013563611816407 1.9337463749999995 Q 5.013563611816407 1.9946516249999995 4.981660861816406 2.0376719999999997 Q 4.949758111816407 2.0806923749999995 4.892236486816406 2.1034109999999995 Q 4.834714861816407 2.1261296249999995 4.756408111816406 2.1261296249999995" fill="#00a4f4" fill-rule="nonzero"></path></g><g clip-path="url(#SvgjsClipPath1003)"><g clip-path="url(#b1bce61a6-3df7-471b-b677-bc75b5f5fab9a14e180d-4f63-439c-a00e-6cabef80a59c)"><path d=" M -0.4871480190755362 0.6826230717212629 C -0.44978596006579963 0.6824911582143207 -0.4166549212247421 0.6585841611063421 -0.4047535205124664 0.623168098144655 C -0.3928521198001915 0.5877520351829681 -0.404822364769692 0.5486889646331674 -0.43452265442555404 0.5260210655470536 L -2.6364233065014795 -1.1439202425985817 C -2.6675806012667977 -1.1674547842389005 -2.710572136156809 -1.1674547842389005 -2.7417294309221276 -1.1439202425985817 L -4.943574687877368 0.5260210655470536 C -4.973364103485344 0.5486576735217674 -4.985417731786999 0.5877595546112415 -4.973543448167516 0.6232395023478097 C -4.961572952250947 0.6587054144565634 -4.928325503404251 0.6825936618852888 -4.890893928106703 0.6826230717212629 L -4.5054546783861 0.6826230717212629 L -4.5054546783861 2.0580839183097366 C -4.784369111031003 2.1041726587189844 -4.9975849305444555 2.3446428776090595 -4.997695720785824 2.6366859538561167 C -4.9975849305444555 2.9616337317895836 -4.734236526811809 3.224871345280862 -4.409344143999027 3.2249267404015454 C -4.084451761186244 3.224871345280862 -3.821103357453598 2.9616337317895836 -3.821047962332914 2.6366859538561167 C -3.821103357453598 2.3384940192131136 -4.043570162121311 2.0949216735647234 -4.331126233592949 2.056255879327159 L -4.331126233592949 0.5954865468850294 C -4.331126233592949 0.5724975718010901 -4.340432613867893 0.5500625479239927 -4.356663384228361 0.5338317775635244 C -4.37304954493647 0.5175314551743877 -4.395205317875676 0.5083546255922009 -4.418318153549866 0.5082946269281121 L -4.63181094866674 0.5082946269281121 L -2.6890486711514616 -0.9651047930300122 L -0.7462309985154993 0.5082946269281123 L -0.9577849644084262 0.5082946269281123 C -0.9807739394923658 0.5082946269281123 -1.0032089633694636 0.5176010072030566 -1.0194397337299312 0.5338317775635248 C -1.0357400561190677 0.5502179382716341 -1.0449168857012547 0.5723737112108402 -1.0449768843653438 0.5954865468850299 L -1.0449768843653438 1.5075118138295578 C -1.0446999087619222 1.9241939116160458 -1.0764413129139636 2.2746234450642406 -1.1657936425775652 2.5360330195729404 C -1.210331319607655 2.6668762946290014 -1.2686069865674243 2.775062965325227 -1.3427256580428724 2.8612023779891445 C -1.4170105148803733 2.947231000411694 -1.5069721908714997 3.0122094769742507 -1.6214185102050394 3.057190314969814 C -1.7003202155582828 3.0880460798784863 -1.7843143572065303 3.1038114232437843 -1.8690346996633753 3.1036668212238503 C -2.0567687636620997 3.103943796827271 -2.2420654423507203 3.0269999741969293 -2.378559019716568 2.9009760746403934 C -2.4994311730494734 2.7892995113410644 -2.5809727906966033 2.6419484903211137 -2.598200673229387 2.476704845320171 C -2.5255417860363996 2.4527871520759597 -2.458078566608625 2.415305497147293 -2.399387585093824 2.366246974675893 C -2.2649436271932917 2.2542380406524583 -2.148170712791016 2.0663931864123652 -2.0646902659199395 1.7582855251668923 C -1.9810990288074941 1.449568517593893 -1.929415381209144 1.0175419713778837 -1.9293045909677753 0.4046503561279897 L -1.9293045909677753 0.4006065123180438 C -1.92935998608846 0.32543533354959586 -1.9414915175182976 0.25801947167693484 -1.9669732730330254 0.19902366814827088 C -2.0048081404603284 0.11022528969151213 -2.0746059925224096 0.04491444240485043 -2.156646166255697 0.007356550580968513 C -2.158640390600328 0.006414833529337471 -2.1608561954276957 0.0058608823224957085 -2.1629058148930107 0.004919165270864223 C -2.1796351413396367 -0.03585164355270076 -2.2122628674226252 -0.06953187692868901 -2.258130027349136 -0.08182959372057974 C -2.3166826699123257 -0.09778338847762691 -2.3769525612167266 -0.10581568097683447 -2.450628071726701 -0.10708976875257115 C -2.531288837319346 -0.10889480769433701 -2.5981405805891726 -0.0449696107817128 -2.599945619530939 0.035691154810932435 C -2.601750658472705 0.11635192040357745 -2.5378254615600806 0.18320366367340468 -2.4571646959674354 0.18500870261517055 C -2.3961746680941407 0.18672595135638037 -2.3722993710792544 0.19054821468358973 -2.3335227866003203 0.20057473152742844 C -2.2895390607770727 0.21231849711247697 -2.246109286160667 0.2010178924929018 -2.211764311336468 0.17642245890912078 C -2.202956487147681 0.1815188100120666 -2.193262341027948 0.1861720001495386 -2.1858947899769507 0.1919884878213789 C -2.1599235417179172 0.21183114685319615 -2.1396024443657717 0.23813016100160223 -2.1269543815689707 0.26826756900351034 C -2.112773230673818 0.30100608532786755 -2.103633035760926 0.34404809409948434 -2.103633035760926 0.40066190743872787 L -2.103633035760926 0.4046503561279897 C -2.103245269916137 1.2085997426176605 -2.195810516579421 1.6848869902603385 -2.3178459674466945 1.9568770328197187 C -2.3787252050786205 2.0930936345821456 -2.4455871157444395 2.177848169228958 -2.5108979630311015 2.2323015728615188 C -2.562476881108178 2.275526394812437 -2.6235062394264514 2.30600312039053 -2.689048671151461 2.3212661366803298 C -2.7546003306713644 2.3060287277356437 -2.815635387747395 2.2755491563226764 -2.867199379271821 2.2323015728615188 C -2.9648609770380503 2.1511477210591785 -3.0673973454244887 1.9995866708672303 -3.1452274899857775 1.7126399457231185 C -3.222946844305698 1.4263025669065328 -3.274575096783365 1.0075708496547298 -3.2744643065419963 0.40465035612798994 L -3.2744643065419963 0.4006619074387283 C -3.2744643065419963 0.3440480940994848 -3.2652687165084204 0.301006085327868 -3.2511429607339517 0.2682675690035108 C -3.232474805063379 0.22649964800763045 -3.2042786886351258 0.1997438047171658 -3.165391313914823 0.1772533857193841 C -3.1312125244526774 0.20135026321700766 -3.0881705156810604 0.21220770687110901 -3.044629950823286 0.20057473152742888 C -3.0057979712236675 0.19054821468359018 -2.981978069329465 0.18672595135638081 -2.9209326463354865 0.185008702615171 C -2.8402718807428418 0.18320366367340468 -2.7763466838302175 0.11635192040357789 -2.7781517227719834 0.03569115481093288 C -2.7799567617137497 -0.04496961078171258 -2.8468085049835765 -0.10889480769433657 -2.927469270576221 -0.1070897687525707 C -3.00120017620688 -0.10581568097683425 -3.06147006751128 -0.09778338847762647 -3.120022710074471 -0.0818295937205793 C -3.1659452651216653 -0.06953187692868879 -3.198628386325338 -0.035685458190647834 -3.215357712771964 0.0051961408742853266 C -3.244880073698817 0.01823727267427455 -3.27281445913878 0.03461132029410674 -3.2986165791603037 0.05399924219705787 C -3.347908272565923 0.0919062352717932 -3.386630826137016 0.1418449767738239 -3.4110686741492127 0.19902366814827133 C -3.4366058247846247 0.2580194716769353 -3.4487373562144628 0.3254353335495963 -3.448792751335147 0.400606512318044 L -3.448792751335147 0.40465035612798994 C -3.448404985490358 1.2217837813404981 -3.3573908022062313 1.717514716343327 -3.2194015565819107 2.027948972657536 C -3.1503238410887238 2.1828891252112195 -3.0681174819933834 2.2918513275970245 -2.9787097572090984 2.366246974675893 C -2.9180012727338296 2.41713128173033 -2.8478930761632566 2.455601390130398 -2.7723629326604855 2.479474601354381 C -2.753750172110597 2.6970666354018844 -2.6485548379313175 2.8893984944173976 -2.496661417015264 3.029160383903613 C -2.328814201342164 3.1836019803711384 -2.1040761967263997 3.277773685534264 -1.8690346996633753 3.277995266017001 C -1.7654458239839372 3.277995266017001 -1.6600289093219214 3.2594379005877956 -1.5578803067802718 3.2194426234538103 C -1.418395392897478 3.1649892198212504 -1.3023980101847812 3.0816749583122256 -1.2106636903317605 2.974873165633105 C -1.072674444707439 2.8144488961316867 -0.9889170222329415 2.604944549704075 -0.938452067289643 2.358547052900791 C -0.888097902587714 2.1118725804940857 -0.8707592298135616 1.826532313849816 -0.870648439572193 1.5075118138295573 L -0.870648439572193 0.6826230717212629 Z M -4.409344143999027 2.5132102298510537 C -4.341200964732185 2.5133321866168172 -4.285990376759727 2.5685427745892744 -4.285868419993965 2.6366859538561167 C -4.286020735718467 2.704816522222596 -4.3412135756325565 2.7600093621366817 -4.409344143999032 2.760161677861179 C -4.47746211506086 2.75997905497126 -4.53263724511417 2.7048039249179485 -4.532819868004089 2.6366859538561167 C -4.532653682642037 2.5685499554145617 -4.477424747319898 2.5133210200924223 -4.409344143999027 2.5132102298510537 M -4.5054546783861 2.2349605386543603 L -4.5054546783861 2.35616506271137 C -4.622449173271111 2.3963265252074093 -4.707037522555871 2.506064259282793 -4.707092917676556 2.6366859538561167 C -4.707092917676556 2.80114335777922 -4.573773850361788 2.9344624250939884 -4.409316446438685 2.9344624250939884 C -4.24485904251558 2.9344624250939884 -4.111539975200813 2.80114335777922 -4.111539975200813 2.6366859538561167 C -4.111595370321497 2.4994722399213742 -4.2048807535536765 2.3851367108292028 -4.331126233592949 2.3506255506429516 L -4.331126233592949 2.2305289289996244 C -4.136089727115895 2.2675407948365827 -3.9950399177534592 2.43816894237748 -3.995376407126064 2.6366859538561167 C -3.995166028533848 2.7465067528848843 -4.03879478197613 2.8518697936476762 -4.1165809311830905 2.929393771551399 C -4.194126755407752 3.0071878500605154 -4.299502252197068 3.0508334437164857 -4.409344143999026 3.0506536907290798 C -4.519186035800985 3.0508334437164857 -4.624561532590299 3.0071878500605154 -4.702107356814977 2.9293937715513847 C -4.779908618584945 2.851875423247016 -4.8235568399797835 2.746513521990586 -4.823367275992673 2.6366859538561167 C -4.8235470289800775 2.5268440620541472 -4.7799014353241045 2.421468565264834 -4.702107356814971 2.3439227410401573 C -4.647885890623175 2.2901262350209324 -4.57981570168436 2.252409597938497 -4.505454678386099 2.2349605386543603" fill="#00a4f4" transform="matrix(1,0,0,1,0,0)" fill-rule="nonzero"></path></g></g></g><defs><clipPath id="SvgjsClipPath1003"><path d=" M -4.997695720785824 -1.1615331410170013 h 4.597695720785824 v 4.439528407034002 h -4.597695720785824 Z"></path></clipPath><clipPath id="b1bce61a6-3df7-471b-b677-bc75b5f5fab9a14e180d-4f63-439c-a00e-6cabef80a59c"><path d=" M -5.0530908414700155 -1.2169310116603467 L -0.34461637355511154 -1.2169310116603467 L -0.34461637355511154 3.3333903867011925 L -5.0530908414700155 3.3333903867011925 Z"></path></clipPath></defs></svg>