<svg width="486" height="140" viewBox="0 0 486 140" fill="none" xmlns="http://www.w3.org/2000/svg">
<path d="M177.316 70.2111C176.778 70.2111 176.35 70.0708 176.031 69.79C175.712 69.5092 175.519 69.166 175.452 68.7605L169.709 38.7646C169.675 38.7022 169.658 38.6398 169.658 38.5774C169.658 38.515 169.658 38.437 169.658 38.437C169.658 38.1874 169.759 37.9612 169.961 37.7585C170.162 37.5557 170.414 37.4543 170.716 37.4543H176.006C176.879 37.4543 177.366 37.7819 177.467 38.437L181.245 58.2315L185.326 45.9243C185.426 45.6747 185.594 45.4095 185.829 45.1287C186.064 44.848 186.451 44.7076 186.988 44.7076H190.162C190.699 44.7076 191.085 44.848 191.32 45.1287C191.556 45.4095 191.707 45.6747 191.774 45.9243L195.905 58.1847L199.633 38.437C199.733 37.7819 200.237 37.4543 201.144 37.4543H206.433C206.736 37.4543 206.988 37.5557 207.189 37.7585C207.391 37.9612 207.491 38.1874 207.491 38.437C207.491 38.437 207.491 38.515 207.491 38.5774C207.491 38.6398 207.475 38.7022 207.441 38.7646L201.698 68.7605C201.631 69.166 201.438 69.5092 201.119 69.79C200.8 70.0708 200.371 70.2111 199.834 70.2111H195.754C195.216 70.2111 194.805 70.0786 194.519 69.8134C194.234 69.5482 194.041 69.2752 193.94 68.9945L188.55 54.4878L183.21 68.9945C183.109 69.2752 182.916 69.5482 182.63 69.8134C182.345 70.0786 181.917 70.2111 181.346 70.2111H177.316ZM226.635 70.6791C223.578 70.6791 220.942 70.2111 218.726 69.2752C216.509 68.3393 214.779 66.9277 213.537 65.0402C212.294 63.1528 211.622 60.774 211.522 57.9039C211.488 56.5624 211.471 55.2288 211.471 53.9029C211.471 52.577 211.488 51.2278 211.522 49.8551C211.622 47.0474 212.302 44.6842 213.562 42.7656C214.821 40.847 216.568 39.4041 218.801 38.437C221.034 37.4699 223.646 36.9863 226.635 36.9863C229.59 36.9863 232.184 37.4699 234.418 38.437C236.651 39.4041 238.406 40.847 239.682 42.7656C240.958 44.6842 241.63 47.0474 241.697 49.8551C241.764 51.2278 241.798 52.577 241.798 53.9029C241.798 55.2288 241.764 56.5624 241.697 57.9039C241.597 60.774 240.925 63.1528 239.682 65.0402C238.44 66.9277 236.71 68.3393 234.493 69.2752C232.277 70.2111 229.657 70.6791 226.635 70.6791ZM226.635 64.6425C228.583 64.6425 230.186 64.0887 231.446 62.9812C232.705 61.8737 233.368 60.1033 233.436 57.6699C233.503 56.2973 233.536 55.0104 233.536 53.8093C233.536 52.6082 233.503 51.337 233.436 49.9955C233.402 48.3732 233.083 47.0474 232.478 46.0179C231.874 44.9884 231.076 44.2318 230.085 43.7483C229.095 43.2647 227.944 43.0229 226.635 43.0229C225.325 43.0229 224.166 43.2647 223.159 43.7483C222.151 44.2318 221.353 44.9884 220.766 46.0179C220.178 47.0474 219.851 48.3732 219.783 49.9955C219.75 51.337 219.733 52.6082 219.733 53.8093C219.733 55.0104 219.75 56.2973 219.783 57.6699C219.884 60.1033 220.556 61.8737 221.798 62.9812C223.041 64.0887 224.653 64.6425 226.635 64.6425ZM262.453 70.6791C259.497 70.6791 256.911 70.2189 254.695 69.2986C252.478 68.3783 250.765 66.9589 249.556 65.0402C248.347 63.1216 247.743 60.6805 247.743 57.7167V38.6242C247.743 38.281 247.86 38.0002 248.095 37.7819C248.33 37.5635 248.633 37.4543 249.002 37.4543H254.493C254.863 37.4543 255.165 37.5635 255.4 37.7819C255.635 38.0002 255.753 38.281 255.753 38.6242V57.6699C255.753 59.9785 256.34 61.6944 257.516 62.8174C258.691 63.9405 260.337 64.5021 262.453 64.5021C264.535 64.5021 266.164 63.9405 267.339 62.8174C268.515 61.6944 269.102 59.9785 269.102 57.6699V38.6242C269.102 38.281 269.228 38.0002 269.48 37.7819C269.732 37.5635 270.026 37.4543 270.362 37.4543H275.903C276.239 37.4543 276.525 37.5635 276.76 37.7819C276.995 38.0002 277.112 38.281 277.112 38.6242V57.7167C277.112 60.6805 276.508 63.1216 275.299 65.0402C274.09 66.9589 272.394 68.3783 270.211 69.2986C268.028 70.2189 265.442 70.6791 262.453 70.6791ZM285.525 70.2111C285.155 70.2111 284.853 70.102 284.618 69.8836C284.383 69.6652 284.265 69.3844 284.265 69.0413V38.6242C284.265 38.281 284.383 38.0002 284.618 37.7819C284.853 37.5635 285.155 37.4543 285.525 37.4543H290.109C290.613 37.4543 290.982 37.5635 291.217 37.7819C291.453 38.0002 291.604 38.1718 291.671 38.2966L305.121 57.8103V38.6242C305.121 38.281 305.239 38.0002 305.474 37.7819C305.709 37.5635 305.995 37.4543 306.33 37.4543H311.469C311.838 37.4543 312.141 37.5635 312.376 37.7819C312.611 38.0002 312.728 38.281 312.728 38.6242V69.0413C312.728 69.3532 312.611 69.6262 312.376 69.8602C312.141 70.0942 311.838 70.2111 311.469 70.2111H306.834C306.33 70.2111 305.969 70.0942 305.751 69.8602C305.533 69.6262 305.373 69.4624 305.273 69.3688L291.872 50.4634V69.0413C291.872 69.3844 291.755 69.6652 291.52 69.8836C291.285 70.102 290.982 70.2111 290.613 70.2111H285.525ZM321.444 70.2111C321.075 70.2111 320.772 70.102 320.537 69.8836C320.302 69.6652 320.185 69.3844 320.185 69.0413V38.6242C320.185 38.281 320.302 38.0002 320.537 37.7819C320.772 37.5635 321.075 37.4543 321.444 37.4543H334.089C337.447 37.4543 340.251 37.9456 342.502 38.9283C344.752 39.911 346.473 41.3461 347.665 43.2335C348.857 45.1209 349.487 47.4529 349.554 50.2295C349.588 51.6021 349.605 52.8032 349.605 53.8327C349.605 54.8622 349.588 56.0477 349.554 57.3892C349.454 60.2905 348.832 62.6927 347.69 64.5957C346.549 66.4987 344.869 67.9104 342.653 68.8307C340.436 69.751 337.665 70.2111 334.341 70.2111H321.444ZM328.195 64.1745H334.089C335.768 64.1745 337.145 63.9405 338.22 63.4726C339.294 63.0046 340.092 62.2637 340.612 61.2498C341.133 60.2359 341.41 58.9178 341.444 57.2956C341.477 56.3909 341.502 55.5797 341.519 54.8622C341.536 54.1447 341.536 53.4272 341.519 52.7096C341.502 51.9921 341.477 51.1966 341.444 50.323C341.377 47.9833 340.73 46.2596 339.504 45.1521C338.278 44.0447 336.389 43.4909 333.837 43.4909H328.195V64.1745ZM369.906 70.6791C366.749 70.6791 364.07 70.1877 361.871 69.205C359.671 68.2223 357.966 66.7873 356.757 64.8998C355.548 63.0124 354.877 60.7117 354.742 57.9975C354.709 56.7184 354.692 55.3458 354.692 53.8795C354.692 52.4132 354.709 51.0094 354.742 49.6679C354.877 46.985 355.557 44.6998 356.783 42.8124C358.008 40.925 359.73 39.4821 361.946 38.4838C364.163 37.4855 366.816 36.9863 369.906 36.9863C372.156 36.9863 374.205 37.2515 376.052 37.7819C377.899 38.3122 379.494 39.0765 380.838 40.0748C382.181 41.0731 383.222 42.243 383.961 43.5845C384.7 44.926 385.103 46.4234 385.17 48.0769C385.17 48.3576 385.061 48.5916 384.842 48.7788C384.624 48.966 384.364 49.0596 384.062 49.0596H378.319C377.916 49.0596 377.597 48.966 377.362 48.7788C377.126 48.5916 376.942 48.2796 376.807 47.8429C376.304 46.0023 375.464 44.7388 374.289 44.0525C373.113 43.3661 371.652 43.0229 369.906 43.0229C367.824 43.0229 366.178 43.5533 364.969 44.614C363.76 45.6747 363.105 47.4373 363.004 49.9019C362.903 52.46 362.903 55.0806 363.004 57.7635C363.105 60.2281 363.76 61.9907 364.969 63.0514C366.178 64.1121 367.824 64.6425 369.906 64.6425C371.652 64.6425 373.121 64.2915 374.314 63.5896C375.506 62.8876 376.337 61.632 376.807 59.8225C376.942 59.3546 377.126 59.0348 377.362 58.8632C377.597 58.6916 377.916 58.6059 378.319 58.6059H384.062C384.364 58.6059 384.624 58.6994 384.842 58.8866C385.061 59.0738 385.17 59.3078 385.17 59.5886C385.103 61.242 384.7 62.7395 383.961 64.0809C383.222 65.4224 382.181 66.5923 380.838 67.5906C379.494 68.5889 377.899 69.3532 376.052 69.8836C374.205 70.4139 372.156 70.6791 369.906 70.6791ZM388.294 70.2111C387.992 70.2111 387.74 70.1098 387.539 69.907C387.337 69.7042 387.236 69.478 387.236 69.2284C387.236 69.0724 387.253 68.9321 387.287 68.8073L399.276 38.7178C399.377 38.3746 399.579 38.0782 399.881 37.8286C400.183 37.5791 400.603 37.4543 401.14 37.4543H407.589C408.126 37.4543 408.546 37.5791 408.848 37.8286C409.15 38.0782 409.352 38.3746 409.453 38.7178L421.442 68.8073C421.476 68.9321 421.493 69.0724 421.493 69.2284C421.493 69.478 421.392 69.7042 421.19 69.907C420.989 70.1098 420.737 70.2111 420.435 70.2111H415.195C414.692 70.2111 414.322 70.102 414.087 69.8836C413.852 69.6652 413.701 69.4624 413.634 69.2752L411.468 64.0341H397.261L395.095 69.2752C395.028 69.4624 394.877 69.6652 394.642 69.8836C394.407 70.102 394.037 70.2111 393.534 70.2111H388.294ZM399.125 57.9975H409.553L404.365 44.5204L399.125 57.9975ZM427.083 70.2111C426.714 70.2111 426.412 70.102 426.177 69.8836C425.941 69.6652 425.824 69.3844 425.824 69.0413V38.6242C425.824 38.281 425.941 38.0002 426.177 37.7819C426.412 37.5635 426.714 37.4543 427.083 37.4543H440.433C444.631 37.4543 447.939 38.3512 450.357 40.145C452.776 41.9389 453.985 44.5204 453.985 47.8897C453.985 50.1671 453.397 52.0701 452.221 53.5987C451.046 55.1274 449.467 56.2661 447.486 57.0148L454.589 68.7137C454.69 68.9009 454.74 69.0724 454.74 69.2284C454.74 69.478 454.639 69.7042 454.438 69.907C454.236 70.1098 453.985 70.2111 453.682 70.2111H448.09C447.486 70.2111 447.033 70.063 446.73 69.7666C446.428 69.4702 446.21 69.1972 446.075 68.9477L439.929 58.2315H433.834V69.0413C433.834 69.3844 433.716 69.6652 433.481 69.8836C433.246 70.102 432.944 70.2111 432.574 70.2111H427.083ZM433.834 52.2885H440.282C442.129 52.2885 443.498 51.8985 444.388 51.1186C445.278 50.3386 445.723 49.2468 445.723 47.8429C445.723 46.439 445.286 45.3315 444.413 44.5204C443.54 43.7093 442.163 43.3037 440.282 43.3037H433.834V52.2885ZM461.441 70.2111C461.071 70.2111 460.769 70.102 460.534 69.8836C460.299 69.6652 460.181 69.3844 460.181 69.0413V38.6242C460.181 38.281 460.299 38.0002 460.534 37.7819C460.769 37.5635 461.071 37.4543 461.441 37.4543H484.261C484.631 37.4543 484.933 37.5635 485.168 37.7819C485.403 38.0002 485.521 38.281 485.521 38.6242V42.3678C485.521 42.6798 485.403 42.945 485.168 43.1633C484.933 43.3817 484.631 43.4909 484.261 43.4909H467.939V50.8378H483.153C483.522 50.8378 483.825 50.947 484.06 51.1654C484.295 51.3837 484.412 51.6645 484.412 52.0077V55.4706C484.412 55.7825 484.295 56.0477 484.06 56.2661C483.825 56.4845 483.522 56.5936 483.153 56.5936H467.939V64.1745H484.664C485.034 64.1745 485.336 64.2837 485.571 64.5021C485.806 64.7205 485.924 65.0012 485.924 65.3444V69.0413C485.924 69.3844 485.806 69.6652 485.571 69.8836C485.336 70.102 485.034 70.2111 484.664 70.2111H461.441Z" fill="white"/>
<path d="M178.852 103.315C176.86 103.315 175.21 102.973 173.9 102.29C172.591 101.606 171.6 100.651 170.929 99.4245C170.258 98.198 169.89 96.7704 169.826 95.1418C169.804 94.3174 169.793 93.4328 169.793 92.4878C169.793 91.5427 169.804 90.638 169.826 89.7734C169.89 88.1448 170.258 86.7172 170.929 85.4907C171.6 84.2642 172.591 83.3092 173.9 82.6255C175.21 81.9419 176.86 81.6001 178.852 81.6001C180.345 81.6001 181.655 81.7911 182.78 82.1731C183.906 82.5552 184.842 83.0679 185.589 83.7113C186.335 84.3547 186.904 85.0735 187.293 85.8677C187.683 86.6619 187.899 87.4812 187.943 88.3257C187.964 88.5067 187.905 88.6575 187.764 88.7781C187.623 88.8987 187.456 88.9591 187.261 88.9591H185.475C185.28 88.9591 185.112 88.9088 184.972 88.8083C184.831 88.7077 184.728 88.5268 184.663 88.2654C184.295 86.6971 183.608 85.6214 182.602 85.0383C181.595 84.4552 180.345 84.1637 178.852 84.1637C177.098 84.1637 175.713 84.6211 174.696 85.5359C173.678 86.4508 173.137 87.9135 173.072 89.9242C173.007 91.5729 173.007 93.2619 173.072 94.991C173.137 97.0017 173.678 98.4644 174.696 99.3792C175.713 100.294 177.098 100.752 178.852 100.752C180.345 100.752 181.595 100.46 182.602 99.8769C183.608 99.2938 184.295 98.2181 184.663 96.6498C184.728 96.3884 184.831 96.2075 184.972 96.1069C185.112 96.0064 185.28 95.9561 185.475 95.9561H187.261C187.456 95.9561 187.623 96.0114 187.764 96.122C187.905 96.2326 187.964 96.3784 187.943 96.5593C187.899 97.4038 187.683 98.2281 187.293 99.0324C186.904 99.8367 186.335 100.561 185.589 101.204C184.842 101.847 183.906 102.36 182.78 102.742C181.655 103.124 180.345 103.315 178.852 103.315ZM200.638 103.315C198.777 103.315 197.186 103.019 195.865 102.425C194.545 101.832 193.528 100.917 192.813 99.6808C192.099 98.4443 191.699 96.8911 191.612 95.0212C191.59 94.1365 191.579 93.287 191.579 92.4727C191.579 91.6584 191.59 90.8089 191.612 89.9242C191.699 88.0744 192.115 86.5312 192.862 85.2947C193.609 84.0581 194.648 83.1332 195.979 82.52C197.31 81.9067 198.863 81.6001 200.638 81.6001C202.391 81.6001 203.933 81.9067 205.265 82.52C206.596 83.1332 207.64 84.0581 208.398 85.2947C209.155 86.5312 209.567 88.0744 209.632 89.9242C209.675 90.8089 209.697 91.6584 209.697 92.4727C209.697 93.287 209.675 94.1365 209.632 95.0212C209.567 96.8911 209.172 98.4443 208.447 99.6808C207.721 100.917 206.699 101.832 205.378 102.425C204.058 103.019 202.478 103.315 200.638 103.315ZM200.638 100.752C202.283 100.752 203.63 100.289 204.68 99.3642C205.73 98.4393 206.298 96.9413 206.385 94.8704C206.428 93.9656 206.45 93.1563 206.45 92.4425C206.45 91.7287 206.428 90.9295 206.385 90.0448C206.342 88.6575 206.066 87.5315 205.557 86.6669C205.048 85.8024 204.372 85.169 203.528 84.7669C202.683 84.3647 201.72 84.1637 200.638 84.1637C199.556 84.1637 198.593 84.3647 197.748 84.7669C196.904 85.169 196.228 85.8024 195.719 86.6669C195.21 87.5315 194.924 88.6575 194.859 90.0448C194.837 90.9295 194.826 91.7287 194.826 92.4425C194.826 93.1563 194.837 93.9656 194.859 94.8704C194.945 96.9413 195.519 98.4393 196.58 99.3642C197.64 100.289 198.993 100.752 200.638 100.752ZM215.346 103.013C215.108 103.013 214.924 102.948 214.794 102.817C214.664 102.687 214.599 102.521 214.599 102.32V82.6255C214.599 82.4044 214.664 82.2284 214.794 82.0977C214.924 81.967 215.108 81.9017 215.346 81.9017H216.84C217.099 81.9017 217.294 81.957 217.424 82.0676C217.554 82.1782 217.63 82.2636 217.651 82.3239L228.431 97.7054V82.6255C228.431 82.4044 228.495 82.2284 228.625 82.0977C228.755 81.967 228.939 81.9017 229.177 81.9017H230.736C230.974 81.9017 231.163 81.967 231.304 82.0977C231.445 82.2284 231.515 82.4044 231.515 82.6255V102.29C231.515 102.491 231.445 102.662 231.304 102.802C231.163 102.943 230.985 103.013 230.768 103.013H229.21C228.972 103.013 228.793 102.953 228.674 102.833C228.555 102.712 228.431 102.591 228.431 102.591L217.684 87.3606V102.32C217.684 102.521 217.613 102.687 217.473 102.817C217.332 102.948 217.143 103.013 216.904 103.013H215.346ZM238.074 103.013C237.836 103.013 237.652 102.948 237.522 102.817C237.392 102.687 237.327 102.521 237.327 102.32V82.6255C237.327 82.4044 237.392 82.2284 237.522 82.0977C237.652 81.967 237.836 81.9017 238.074 81.9017H239.567C239.827 81.9017 240.022 81.957 240.152 82.0676C240.281 82.1782 240.357 82.2636 240.379 82.3239L251.158 97.7054V82.6255C251.158 82.4044 251.223 82.2284 251.353 82.0977C251.483 81.967 251.667 81.9017 251.905 81.9017H253.463C253.702 81.9017 253.891 81.967 254.032 82.0977C254.172 82.2284 254.243 82.4044 254.243 82.6255V102.29C254.243 102.491 254.172 102.662 254.032 102.802C253.891 102.943 253.712 103.013 253.496 103.013H251.937C251.699 103.013 251.521 102.953 251.402 102.833C251.283 102.712 251.158 102.591 251.158 102.591L240.411 87.3606V102.32C240.411 102.521 240.341 102.687 240.2 102.817C240.06 102.948 239.87 103.013 239.632 103.013H238.074ZM260.801 103.013C260.563 103.013 260.379 102.948 260.249 102.817C260.12 102.687 260.055 102.521 260.055 102.32V82.6255C260.055 82.4044 260.12 82.2284 260.249 82.0977C260.379 81.967 260.563 81.9017 260.801 81.9017H274.211C274.449 81.9017 274.633 81.967 274.763 82.0977C274.892 82.2284 274.957 82.4044 274.957 82.6255V83.7716C274.957 83.9928 274.892 84.1637 274.763 84.2843C274.633 84.405 274.449 84.4653 274.211 84.4653H263.172V91.0702H273.496C273.734 91.0702 273.918 91.1356 274.048 91.2663C274.178 91.397 274.243 91.5729 274.243 91.7941V92.91C274.243 93.1111 274.178 93.2769 274.048 93.4076C273.918 93.5383 273.734 93.6037 273.496 93.6037H263.172V100.45H274.47C274.708 100.45 274.892 100.51 275.022 100.631C275.152 100.752 275.217 100.922 275.217 101.144V102.32C275.217 102.521 275.152 102.687 275.022 102.817C274.892 102.948 274.708 103.013 274.47 103.013H260.801ZM287.847 103.315C285.856 103.315 284.205 102.973 282.896 102.29C281.586 101.606 280.596 100.651 279.925 99.4245C279.254 98.198 278.886 96.7704 278.821 95.1418C278.799 94.3174 278.788 93.4328 278.788 92.4878C278.788 91.5427 278.799 90.638 278.821 89.7734C278.886 88.1448 279.254 86.7172 279.925 85.4907C280.596 84.2642 281.586 83.3092 282.896 82.6255C284.205 81.9419 285.856 81.6001 287.847 81.6001C289.341 81.6001 290.65 81.7911 291.776 82.1731C292.901 82.5552 293.837 83.0679 294.584 83.7113C295.331 84.3547 295.899 85.0735 296.289 85.8677C296.678 86.6619 296.895 87.4812 296.938 88.3257C296.96 88.5067 296.9 88.6575 296.759 88.7781C296.619 88.8987 296.451 88.9591 296.256 88.9591H294.47C294.276 88.9591 294.108 88.9088 293.967 88.8083C293.826 88.7077 293.724 88.5268 293.659 88.2654C293.291 86.6971 292.604 85.6214 291.597 85.0383C290.591 84.4552 289.341 84.1637 287.847 84.1637C286.094 84.1637 284.708 84.6211 283.691 85.5359C282.674 86.4508 282.133 87.9135 282.068 89.9242C282.003 91.5729 282.003 93.2619 282.068 94.991C282.133 97.0017 282.674 98.4644 283.691 99.3792C284.708 100.294 286.094 100.752 287.847 100.752C289.341 100.752 290.591 100.46 291.597 99.8769C292.604 99.2938 293.291 98.2181 293.659 96.6498C293.724 96.3884 293.826 96.2075 293.967 96.1069C294.108 96.0064 294.276 95.9561 294.47 95.9561H296.256C296.451 95.9561 296.619 96.0114 296.759 96.122C296.9 96.2326 296.96 96.3784 296.938 96.5593C296.895 97.4038 296.678 98.2281 296.289 99.0324C295.899 99.8367 295.331 100.561 294.584 101.204C293.837 101.847 292.901 102.36 291.776 102.742C290.65 103.124 289.341 103.315 287.847 103.315ZM307.166 103.013C306.949 103.013 306.771 102.948 306.63 102.817C306.489 102.687 306.419 102.521 306.419 102.32V84.5859H300.185C299.969 84.5859 299.79 84.5206 299.65 84.3899C299.509 84.2592 299.439 84.0933 299.439 83.8922V82.6255C299.439 82.4044 299.509 82.2284 299.65 82.0977C299.79 81.967 299.969 81.9017 300.185 81.9017H315.835C316.073 81.9017 316.262 81.967 316.403 82.0977C316.544 82.2284 316.614 82.4044 316.614 82.6255V83.8922C316.614 84.0933 316.544 84.2592 316.403 84.3899C316.262 84.5206 316.073 84.5859 315.835 84.5859H309.633V102.32C309.633 102.521 309.563 102.687 309.422 102.817C309.282 102.948 309.092 103.013 308.854 103.013H307.166ZM327.587 103.315C325.703 103.315 324.123 103.044 322.846 102.501C321.569 101.958 320.59 101.259 319.908 100.405C319.226 99.5502 318.864 98.6504 318.82 97.7054C318.82 97.5445 318.891 97.3988 319.031 97.2681C319.172 97.1374 319.34 97.072 319.535 97.072H321.19C321.45 97.072 321.645 97.1323 321.775 97.253C321.905 97.3736 321.991 97.5144 322.035 97.6752C322.164 98.1578 322.435 98.6353 322.846 99.1078C323.257 99.5803 323.847 99.9724 324.616 100.284C325.384 100.596 326.374 100.752 327.587 100.752C329.448 100.752 330.817 100.445 331.694 99.8316C332.57 99.2184 333.009 98.3991 333.009 97.3736C333.009 96.6699 332.776 96.1019 332.311 95.6696C331.845 95.2373 331.136 94.8503 330.184 94.5085C329.232 94.1666 327.998 93.7947 326.483 93.3925C324.903 92.9703 323.593 92.5079 322.554 92.0052C321.515 91.5025 320.741 90.8792 320.233 90.1353C319.724 89.3914 319.47 88.4464 319.47 87.3003C319.47 86.2145 319.783 85.2444 320.411 84.3899C321.039 83.5353 321.948 82.8568 323.138 82.3541C324.329 81.8514 325.758 81.6001 327.424 81.6001C328.766 81.6001 329.94 81.766 330.947 82.0977C331.953 82.4295 332.792 82.8718 333.463 83.4248C334.134 83.9777 334.643 84.5708 334.989 85.2042C335.336 85.8375 335.52 86.4558 335.541 87.059C335.541 87.1998 335.487 87.3355 335.379 87.4662C335.271 87.5969 335.097 87.6622 334.859 87.6622H333.139C332.987 87.6622 332.83 87.622 332.668 87.5416C332.505 87.4611 332.381 87.3103 332.294 87.0892C332.164 86.2648 331.667 85.5711 330.801 85.0081C329.935 84.4452 328.809 84.1637 327.424 84.1637C326.017 84.1637 324.875 84.415 323.999 84.9177C323.122 85.4203 322.684 86.2045 322.684 87.2701C322.684 87.9537 322.89 88.5218 323.301 88.9741C323.712 89.4265 324.361 89.8236 325.249 90.1655C326.136 90.5073 327.294 90.8692 328.723 91.2512C330.455 91.6935 331.872 92.161 332.976 92.6536C334.08 93.1462 334.897 93.7595 335.428 94.4934C335.958 95.2273 336.223 96.1672 336.223 97.3133C336.223 98.58 335.866 99.6607 335.152 100.555C334.437 101.45 333.436 102.134 332.148 102.606C330.86 103.079 329.34 103.315 327.587 103.315Z" fill="white"/>
<mask id="mask0_1067_1120" style="mask-type:luminance" maskUnits="userSpaceOnUse" x="0" y="0" width="155" height="140">
<path d="M0 0.75H154.411V139.25H0V0.75Z" fill="white"/>
</mask>
<g mask="url(#mask0_1067_1120)">
<mask id="mask1_1067_1120" style="mask-type:luminance" maskUnits="userSpaceOnUse" x="-2" y="-1" width="159" height="142">
<path d="M-1.86035 -0.978271H156.271V140.978H-1.86035V-0.978271Z" fill="white"/>
</mask>
<g mask="url(#mask1_1067_1120)">
<path d="M151.484 58.2821C152.739 58.278 153.852 57.5322 154.252 56.4273C154.651 55.3224 154.249 54.1038 153.252 53.3966L79.3021 1.29943C78.2557 0.565227 76.8119 0.565227 75.7655 1.29943L1.81763 53.3966C0.817164 54.1028 0.41235 55.3227 0.811142 56.4295C1.21316 57.536 2.32977 58.2812 3.58689 58.2821H16.5317V101.192C7.16448 102.63 0.00372083 110.132 0 119.243C0.00372083 129.38 8.84815 137.593 19.7595 137.594C30.6708 137.593 39.5153 129.38 39.5171 119.243C39.5153 109.94 32.0438 102.342 22.3864 101.135V55.5637C22.3864 54.8465 22.0739 54.1466 21.5288 53.6403C20.9784 53.1318 20.2343 52.8455 19.4581 52.8436H12.2881L77.5347 6.87794L142.783 52.8436H135.678C134.906 52.8436 134.153 53.1339 133.608 53.6403C133.06 54.1515 132.752 54.8427 132.75 55.5637V84.0162C132.759 97.0154 131.693 107.948 128.692 116.103C127.197 120.185 125.24 123.56 122.75 126.247C120.255 128.931 117.234 130.958 113.391 132.362C110.741 133.324 107.92 133.816 105.074 133.811C98.7695 133.82 92.5464 131.42 87.9624 127.488C83.9029 124.004 81.1644 119.407 80.5858 114.252C83.026 113.506 85.2917 112.337 87.2628 110.806C91.7781 107.312 95.6998 101.452 98.5035 91.8396C101.311 82.2085 103.047 68.7306 103.05 49.6102V49.4841C103.048 47.1389 102.641 45.0358 101.785 43.1953C100.515 40.425 98.1705 38.3875 95.4152 37.2158C95.3482 37.1864 95.2738 37.1692 95.205 37.1398C94.6431 35.8679 93.5473 34.8171 92.0069 34.4335C90.0405 33.9358 88.0163 33.6852 85.542 33.6454C82.833 33.5891 80.5878 35.5834 80.5272 38.0998C80.4666 40.6162 82.6135 42.7017 85.3224 42.758C87.3707 42.8116 88.1726 42.9309 89.4749 43.2437C90.9521 43.61 92.4106 43.2575 93.5641 42.4902C93.8599 42.6492 94.1855 42.7943 94.4329 42.9758C95.3051 43.5948 95.9876 44.4153 96.4124 45.3555C96.8886 46.3768 97.1956 47.7196 97.1956 49.4858V49.6102C97.2086 74.691 94.0999 89.5498 90.0014 98.035C87.9568 102.285 85.7113 104.929 83.5178 106.627C81.7856 107.976 79.7359 108.927 77.5347 109.403C75.3332 108.928 73.2834 107.977 71.5516 106.627C68.2717 104.096 64.8281 99.3674 62.2142 90.4156C59.604 81.4827 57.8701 68.4195 57.8738 49.6102V49.4858C57.8738 47.7196 58.1827 46.3768 58.6571 45.3555C59.284 44.0524 60.231 43.2177 61.537 42.5161C62.6849 43.2678 64.1304 43.6066 65.5927 43.2437C66.8969 42.9309 67.6969 42.8116 69.747 42.758C72.456 42.7017 74.6029 40.6162 74.5422 38.0998C74.4816 35.5834 72.2365 33.5891 69.5275 33.6454C67.0513 33.6852 65.0271 33.9358 63.0607 34.4335C61.5184 34.8171 60.4208 35.873 59.8589 37.1484C58.8674 37.5553 57.9293 38.0661 57.0627 38.6709C55.4073 39.8535 54.1068 41.4115 53.2861 43.1953C52.4284 45.0358 52.021 47.1389 52.0191 49.4841V49.6102C52.0321 75.1023 55.0888 90.5676 59.7231 100.252C62.043 105.086 64.8039 108.485 67.8066 110.806C69.8455 112.394 72.2 113.594 74.7367 114.339C75.3618 121.127 78.8947 127.127 83.996 131.487C89.633 136.305 97.1807 139.243 105.074 139.25C108.553 139.25 112.094 138.671 115.524 137.423C120.209 135.725 124.105 133.125 127.186 129.793C131.82 124.789 134.633 118.253 136.328 110.566C138.019 102.87 138.601 93.9687 138.605 84.0162V58.2821H151.484ZM19.7595 115.391C22.048 115.395 23.9023 117.117 23.9064 119.243C23.9012 121.368 22.0476 123.09 19.7595 123.095C17.4718 123.089 15.6188 121.368 15.6126 119.243C15.6182 117.117 17.473 115.394 19.7595 115.391ZM16.5317 106.71V110.492C12.6025 111.745 9.76162 115.168 9.75976 119.243C9.75976 124.374 14.2372 128.533 19.7604 128.533C25.2836 128.533 29.7611 124.374 29.7611 119.243C29.7592 114.962 26.6263 111.395 22.3864 110.319V106.572C28.9366 107.727 33.6737 113.05 33.6624 119.243C33.6695 122.669 32.2042 125.956 29.5918 128.375C26.9875 130.802 23.4485 132.163 19.7595 132.158C16.0705 132.163 12.5315 130.802 9.92719 128.375C7.31427 125.956 5.84838 122.669 5.85474 119.243C5.84871 115.816 7.31451 112.529 9.92719 110.11C11.7482 108.431 14.0343 107.255 16.5317 106.71Z" fill="white"/>
</g>
</g>
</svg>
