<svg width="32" height="33" viewBox="0 0 32 33" fill="none" xmlns="http://www.w3.org/2000/svg">
<path d="M10.96 4.86377H21.04C24.88 4.86377 28 7.98377 28 11.8238V21.9038C28 23.7497 27.2667 25.52 25.9615 26.8252C24.6562 28.1305 22.8859 28.8638 21.04 28.8638H10.96C7.12 28.8638 4 25.7438 4 21.9038V11.8238C4 9.97786 4.73328 8.20756 6.03854 6.90231C7.34379 5.59705 9.11409 4.86377 10.96 4.86377ZM10.72 7.26377C9.57427 7.26377 8.47546 7.71891 7.6653 8.52907C6.85514 9.33923 6.4 10.438 6.4 11.5838V22.1438C6.4 24.5318 8.332 26.4638 10.72 26.4638H21.28C22.4257 26.4638 23.5245 26.0086 24.3347 25.1985C25.1449 24.3883 25.6 23.2895 25.6 22.1438V11.5838C25.6 9.19577 23.668 7.26377 21.28 7.26377H10.72ZM22.3 9.06377C22.6978 9.06377 23.0794 9.22181 23.3607 9.50311C23.642 9.78441 23.8 10.1659 23.8 10.5638C23.8 10.9616 23.642 11.3431 23.3607 11.6244C23.0794 11.9057 22.6978 12.0638 22.3 12.0638C21.9022 12.0638 21.5206 11.9057 21.2393 11.6244C20.958 11.3431 20.8 10.9616 20.8 10.5638C20.8 10.1659 20.958 9.78441 21.2393 9.50311C21.5206 9.22181 21.9022 9.06377 22.3 9.06377ZM16 10.8638C17.5913 10.8638 19.1174 11.4959 20.2426 12.6211C21.3679 13.7463 22 15.2725 22 16.8638C22 18.4551 21.3679 19.9812 20.2426 21.1064C19.1174 22.2316 17.5913 22.8638 16 22.8638C14.4087 22.8638 12.8826 22.2316 11.7574 21.1064C10.6321 19.9812 10 18.4551 10 16.8638C10 15.2725 10.6321 13.7463 11.7574 12.6211C12.8826 11.4959 14.4087 10.8638 16 10.8638ZM16 13.2638C15.0452 13.2638 14.1295 13.6431 13.4544 14.3182C12.7793 14.9933 12.4 15.909 12.4 16.8638C12.4 17.8185 12.7793 18.7342 13.4544 19.4094C14.1295 20.0845 15.0452 20.4638 16 20.4638C16.9548 20.4638 17.8705 20.0845 18.5456 19.4094C19.2207 18.7342 19.6 17.8185 19.6 16.8638C19.6 15.909 19.2207 14.9933 18.5456 14.3182C17.8705 13.6431 16.9548 13.2638 16 13.2638Z" fill="#00A4F4"/>
</svg>
