<svg width="216" height="62" viewBox="0 0 216 62" fill="none" xmlns="http://www.w3.org/2000/svg">
<path d="M78.4945 31.0935C78.2567 31.0935 78.0671 31.0314 77.9259 30.9071C77.7846 30.7828 77.6991 30.6309 77.6694 30.4513L75.1271 17.1727C75.1122 17.1451 75.1048 17.1174 75.1048 17.0898C75.1048 17.0622 75.1048 17.0277 75.1048 17.0277C75.1048 16.9172 75.1494 16.8171 75.2386 16.7273C75.3278 16.6375 75.4393 16.5927 75.5731 16.5927H77.9147C78.3013 16.5927 78.5168 16.7377 78.5614 17.0277L80.234 25.7903L82.0404 20.3422C82.085 20.2317 82.1593 20.1143 82.2634 19.99C82.3674 19.8657 82.5384 19.8036 82.7763 19.8036H84.1813C84.4191 19.8036 84.5901 19.8657 84.6942 19.99C84.7982 20.1143 84.8651 20.2317 84.8949 20.3422L86.7236 25.7696L88.3738 17.0277C88.4184 16.7377 88.6414 16.5927 89.0428 16.5927H91.3844C91.5182 16.5927 91.6297 16.6375 91.7189 16.7273C91.8081 16.8171 91.8528 16.9172 91.8528 17.0277C91.8528 17.0277 91.8528 17.0622 91.8528 17.0898C91.8528 17.1174 91.8453 17.1451 91.8305 17.1727L89.2882 30.4513C89.2584 30.6309 89.1729 30.7828 89.0317 30.9071C88.8905 31.0314 88.7009 31.0935 88.463 31.0935H86.6566C86.4188 31.0935 86.2366 31.0348 86.1103 30.9174C85.9839 30.8001 85.8984 30.6792 85.8538 30.5549L83.4676 24.1331L81.1037 30.5549C81.0591 30.6792 80.9736 30.8001 80.8473 30.9174C80.7209 31.0348 80.5313 31.0935 80.2786 31.0935H78.4945ZM100.327 31.3007C98.9742 31.3007 97.8071 31.0935 96.8259 30.6792C95.8447 30.2649 95.079 29.64 94.5289 28.8045C93.9788 27.9689 93.6815 26.9159 93.6369 25.6453C93.622 25.0515 93.6146 24.4611 93.6146 23.8742C93.6146 23.2872 93.622 22.6899 93.6369 22.0823C93.6815 20.8393 93.9825 19.7932 94.5401 18.9439C95.0976 18.0945 95.8707 17.4558 96.8594 17.0277C97.848 16.5996 99.004 16.3855 100.327 16.3855C101.635 16.3855 102.784 16.5996 103.773 17.0277C104.761 17.4558 105.538 18.0945 106.103 18.9439C106.668 19.7932 106.965 20.8393 106.995 22.0823C107.025 22.6899 107.04 23.2872 107.04 23.8742C107.04 24.4611 107.025 25.0515 106.995 25.6453C106.95 26.9159 106.653 27.9689 106.103 28.8045C105.553 29.64 104.787 30.2649 103.806 30.6792C102.825 31.0935 101.665 31.3007 100.327 31.3007ZM100.327 28.6284C101.189 28.6284 101.899 28.3832 102.457 27.893C103.014 27.4027 103.308 26.619 103.338 25.5418C103.367 24.9341 103.382 24.3644 103.382 23.8327C103.382 23.301 103.367 22.7383 103.338 22.1444C103.323 21.4263 103.182 20.8393 102.914 20.3836C102.646 19.9279 102.293 19.593 101.855 19.3789C101.416 19.1648 100.907 19.0578 100.327 19.0578C99.7473 19.0578 99.2344 19.1648 98.7884 19.3789C98.3424 19.593 97.9893 19.9279 97.7291 20.3836C97.4689 20.8393 97.324 21.4263 97.2942 22.1444C97.2794 22.7383 97.2719 23.301 97.2719 23.8327C97.2719 24.3644 97.2794 24.9341 97.2942 25.5418C97.3388 26.619 97.6362 27.4027 98.1863 27.893C98.7363 28.3832 99.45 28.6284 100.327 28.6284ZM116.183 31.3007C114.875 31.3007 113.73 31.097 112.749 30.6896C111.768 30.2822 111.009 29.6538 110.474 28.8045C109.939 27.9551 109.671 26.8745 109.671 25.5625V17.1105C109.671 16.9586 109.723 16.8343 109.827 16.7377C109.931 16.641 110.065 16.5927 110.229 16.5927H112.66C112.823 16.5927 112.957 16.641 113.061 16.7377C113.165 16.8343 113.217 16.9586 113.217 17.1105V25.5418C113.217 26.5637 113.477 27.3233 113.998 27.8205C114.518 28.3176 115.246 28.5662 116.183 28.5662C117.105 28.5662 117.826 28.3176 118.346 27.8205C118.867 27.3233 119.127 26.5637 119.127 25.5418V17.1105C119.127 16.9586 119.183 16.8343 119.294 16.7377C119.406 16.641 119.536 16.5927 119.684 16.5927H122.137C122.286 16.5927 122.412 16.641 122.517 16.7377C122.621 16.8343 122.673 16.9586 122.673 17.1105V25.5625C122.673 26.8745 122.405 27.9551 121.87 28.8045C121.335 29.6538 120.584 30.2822 119.617 30.6896C118.651 31.097 117.506 31.3007 116.183 31.3007ZM126.397 31.0935C126.233 31.0935 126.099 31.0452 125.995 30.9485C125.891 30.8518 125.839 30.7276 125.839 30.5756V17.1105C125.839 16.9586 125.891 16.8343 125.995 16.7377C126.099 16.641 126.233 16.5927 126.397 16.5927H128.426C128.649 16.5927 128.813 16.641 128.917 16.7377C129.021 16.8343 129.088 16.9103 129.117 16.9655L135.072 25.6039V17.1105C135.072 16.9586 135.124 16.8343 135.228 16.7377C135.332 16.641 135.458 16.5927 135.607 16.5927H137.882C138.045 16.5927 138.179 16.641 138.283 16.7377C138.387 16.8343 138.439 16.9586 138.439 17.1105V30.5756C138.439 30.7137 138.387 30.8346 138.283 30.9382C138.179 31.0417 138.045 31.0935 137.882 31.0935H135.83C135.607 31.0935 135.447 31.0417 135.351 30.9382C135.254 30.8346 135.183 30.7621 135.139 30.7206L129.207 22.3516V30.5756C129.207 30.7276 129.155 30.8518 129.051 30.9485C128.947 31.0452 128.813 31.0935 128.649 31.0935H126.397ZM142.298 31.0935C142.134 31.0935 142 31.0452 141.896 30.9485C141.792 30.8518 141.74 30.7276 141.74 30.5756V17.1105C141.74 16.9586 141.792 16.8343 141.896 16.7377C142 16.641 142.134 16.5927 142.298 16.5927H147.895C149.382 16.5927 150.623 16.8102 151.619 17.2452C152.615 17.6802 153.377 18.3155 153.905 19.151C154.433 19.9865 154.712 21.0189 154.741 22.248C154.756 22.8556 154.764 23.3873 154.764 23.8431C154.764 24.2988 154.756 24.8236 154.741 25.4175C154.697 26.7018 154.422 27.7652 153.916 28.6077C153.411 29.4501 152.668 30.075 151.686 30.4824C150.705 30.8898 149.478 31.0935 148.007 31.0935H142.298ZM145.286 28.4212H147.895C148.638 28.4212 149.248 28.3176 149.724 28.1105C150.2 27.9033 150.553 27.5753 150.783 27.1265C151.014 26.6777 151.136 26.0942 151.151 25.376C151.166 24.9755 151.177 24.6165 151.184 24.2988C151.192 23.9812 151.192 23.6636 151.184 23.3459C151.177 23.0283 151.166 22.6761 151.151 22.2894C151.121 21.2536 150.835 20.4906 150.292 20.0004C149.75 19.5101 148.914 19.265 147.784 19.265H145.286V28.4212ZM163.751 31.3007C162.353 31.3007 161.167 31.0832 160.194 30.6481C159.22 30.2131 158.465 29.5778 157.93 28.7423C157.395 27.9068 157.098 26.8883 157.038 25.6868C157.023 25.1205 157.016 24.5129 157.016 23.8638C157.016 23.2147 157.023 22.5933 157.038 21.9994C157.098 20.8117 157.399 19.8001 157.941 18.9646C158.484 18.1291 159.246 17.4903 160.227 17.0484C161.208 16.6065 162.383 16.3855 163.751 16.3855C164.747 16.3855 165.654 16.5029 166.471 16.7377C167.289 16.9724 167.995 17.3108 168.59 17.7527C169.185 18.1947 169.646 18.7125 169.973 19.3064C170.3 19.9002 170.478 20.5631 170.508 21.2951C170.508 21.4194 170.46 21.5229 170.363 21.6058C170.266 21.6887 170.151 21.7301 170.017 21.7301H167.475C167.297 21.7301 167.155 21.6887 167.051 21.6058C166.947 21.5229 166.865 21.3848 166.806 21.1915C166.583 20.3767 166.211 19.8174 165.691 19.5135C165.171 19.2097 164.524 19.0578 163.751 19.0578C162.829 19.0578 162.1 19.2926 161.565 19.7621C161.03 20.2317 160.74 21.012 160.695 22.103C160.651 23.2354 160.651 24.3955 160.695 25.5832C160.74 26.6742 161.03 27.4545 161.565 27.924C162.1 28.3936 162.829 28.6284 163.751 28.6284C164.524 28.6284 165.174 28.473 165.702 28.1623C166.23 27.8515 166.598 27.2957 166.806 26.4947C166.865 26.2875 166.947 26.146 167.051 26.07C167.155 25.9941 167.297 25.9561 167.475 25.9561H170.017C170.151 25.9561 170.266 25.9975 170.363 26.0804C170.46 26.1632 170.508 26.2668 170.508 26.3911C170.478 27.123 170.3 27.7859 169.973 28.3798C169.646 28.9736 169.185 29.4915 168.59 29.9335C167.995 30.3754 167.289 30.7137 166.471 30.9485C165.654 31.1833 164.747 31.3007 163.751 31.3007ZM171.891 31.0935C171.757 31.0935 171.646 31.0486 171.556 30.9589C171.467 30.8691 171.423 30.769 171.423 30.6585C171.423 30.5894 171.43 30.5273 171.445 30.4721L176.753 17.152C176.797 17.0001 176.886 16.8689 177.02 16.7584C177.154 16.6479 177.34 16.5927 177.578 16.5927H180.432C180.67 16.5927 180.856 16.6479 180.99 16.7584C181.124 16.8689 181.213 17.0001 181.257 17.152L186.565 30.4721C186.58 30.5273 186.587 30.5894 186.587 30.6585C186.587 30.769 186.543 30.8691 186.453 30.9589C186.364 31.0486 186.253 31.0935 186.119 31.0935H183.8C183.577 31.0935 183.413 31.0452 183.309 30.9485C183.205 30.8518 183.138 30.7621 183.108 30.6792L182.149 28.3591H175.861L174.902 30.6792C174.872 30.7621 174.805 30.8518 174.701 30.9485C174.597 31.0452 174.433 31.0935 174.21 31.0935H171.891ZM176.686 25.6868H181.302L179.005 19.7207L176.686 25.6868ZM189.062 31.0935C188.899 31.0935 188.765 31.0452 188.661 30.9485C188.557 30.8518 188.505 30.7276 188.505 30.5756V17.1105C188.505 16.9586 188.557 16.8343 188.661 16.7377C188.765 16.641 188.899 16.5927 189.062 16.5927H194.972C196.83 16.5927 198.295 16.9897 199.365 17.7838C200.436 18.5779 200.971 19.7207 200.971 21.2122C200.971 22.2204 200.711 23.0628 200.19 23.7395C199.67 24.4162 198.971 24.9203 198.094 25.2517L201.238 30.4306C201.283 30.5135 201.305 30.5894 201.305 30.6585C201.305 30.769 201.261 30.8691 201.172 30.9589C201.082 31.0486 200.971 31.0935 200.837 31.0935H198.362C198.094 31.0935 197.893 31.0279 197.76 30.8967C197.626 30.7655 197.529 30.6447 197.47 30.5342L194.749 25.7903H192.05V30.5756C192.05 30.7276 191.998 30.8518 191.894 30.9485C191.79 31.0452 191.657 31.0935 191.493 31.0935H189.062ZM192.05 23.1595H194.905C195.723 23.1595 196.329 22.9868 196.723 22.6416C197.117 22.2963 197.313 21.813 197.313 21.1915C197.313 20.57 197.12 20.0798 196.734 19.7207C196.347 19.3616 195.738 19.1821 194.905 19.1821H192.05V23.1595ZM204.272 31.0935C204.108 31.0935 203.974 31.0452 203.87 30.9485C203.766 30.8518 203.714 30.7276 203.714 30.5756V17.1105C203.714 16.9586 203.766 16.8343 203.87 16.7377C203.974 16.641 204.108 16.5927 204.272 16.5927H214.374C214.537 16.5927 214.671 16.641 214.775 16.7377C214.879 16.8343 214.931 16.9586 214.931 17.1105V18.7678C214.931 18.9059 214.879 19.0233 214.775 19.1199C214.671 19.2166 214.537 19.265 214.374 19.265H207.148V22.5173H213.883C214.047 22.5173 214.181 22.5656 214.285 22.6623C214.389 22.759 214.441 22.8833 214.441 23.0352V24.5681C214.441 24.7062 214.389 24.8236 214.285 24.9203C214.181 25.017 214.047 25.0653 213.883 25.0653H207.148V28.4212H214.552C214.716 28.4212 214.85 28.4696 214.954 28.5662C215.058 28.6629 215.11 28.7872 215.11 28.9391V30.5756C215.11 30.7276 215.058 30.8518 214.954 30.9485C214.85 31.0452 214.716 31.0935 214.552 31.0935H204.272Z" fill="#00A4F4"/>
<path d="M79.1744 45.7481C78.2929 45.7481 77.5622 45.5968 76.9825 45.2941C76.4028 44.9915 75.9645 44.5687 75.6674 44.0258C75.3704 43.4828 75.2075 42.8509 75.1787 42.1299C75.1692 41.765 75.1644 41.3734 75.1644 40.955C75.1644 40.5367 75.1692 40.1362 75.1787 39.7534C75.2075 39.0325 75.3704 38.4005 75.6674 37.8576C75.9645 37.3146 76.4028 36.8918 76.9825 36.5892C77.5622 36.2866 78.2929 36.1353 79.1744 36.1353C79.8356 36.1353 80.4153 36.2198 80.9135 36.3889C81.4118 36.558 81.8262 36.785 82.1568 37.0698C82.4874 37.3547 82.7389 37.6729 82.9114 38.0244C83.0838 38.376 83.1797 38.7387 83.1988 39.1126C83.2084 39.1927 83.1821 39.2594 83.1198 39.3128C83.0575 39.3662 82.9832 39.3929 82.897 39.3929H82.1065C82.0202 39.3929 81.946 39.3707 81.8837 39.3262C81.8214 39.2817 81.7759 39.2016 81.7472 39.0859C81.5843 38.3916 81.28 37.9154 80.8345 37.6573C80.3889 37.3992 79.8356 37.2701 79.1744 37.2701C78.3983 37.2701 77.785 37.4726 77.3347 37.8776C76.8843 38.2826 76.6448 38.9301 76.616 39.8202C76.5873 40.55 76.5873 41.2977 76.616 42.0632C76.6448 42.9532 76.8843 43.6008 77.3347 44.0058C77.785 44.4107 78.3983 44.6132 79.1744 44.6132C79.8356 44.6132 80.3889 44.4842 80.8345 44.2261C81.28 43.9679 81.5843 43.4917 81.7472 42.7975C81.7759 42.6818 81.8214 42.6017 81.8837 42.5572C81.946 42.5127 82.0202 42.4904 82.1065 42.4904H82.897C82.9832 42.4904 83.0575 42.5149 83.1198 42.5638C83.1821 42.6128 83.2084 42.6773 83.1988 42.7574C83.1797 43.1313 83.0838 43.4962 82.9114 43.8522C82.7389 44.2083 82.4874 44.5287 82.1568 44.8135C81.8262 45.0983 81.4118 45.3253 80.9135 45.4944C80.4153 45.6635 79.8356 45.7481 79.1744 45.7481ZM88.8189 45.7481C87.9948 45.7481 87.2905 45.6168 86.706 45.3542C86.1215 45.0917 85.6712 44.6867 85.355 44.1393C85.0388 43.5919 84.8615 42.9043 84.8232 42.0765C84.8136 41.6849 84.8088 41.3088 84.8088 40.9483C84.8088 40.5879 84.8136 40.2118 84.8232 39.8202C84.8615 39.0013 85.046 38.3182 85.3765 37.7708C85.7071 37.2234 86.1671 36.8139 86.7563 36.5425C87.3456 36.271 88.0331 36.1353 88.8189 36.1353C89.595 36.1353 90.2777 36.271 90.867 36.5425C91.4563 36.8139 91.9186 37.2234 92.254 37.7708C92.5894 38.3182 92.7714 39.0013 92.8002 39.8202C92.8193 40.2118 92.8289 40.5879 92.8289 40.9483C92.8289 41.3088 92.8193 41.6849 92.8002 42.0765C92.7714 42.9043 92.5965 43.5919 92.2755 44.1393C91.9545 44.6867 91.5018 45.0917 90.9173 45.3542C90.3328 45.6168 89.6333 45.7481 88.8189 45.7481ZM88.8189 44.6132C89.5471 44.6132 90.1436 44.4085 90.6083 43.9991C91.073 43.5897 91.3245 42.9265 91.3629 42.0098C91.382 41.6092 91.3916 41.251 91.3916 40.935C91.3916 40.619 91.382 40.2652 91.3629 39.8736C91.3437 39.2594 91.2215 38.761 90.9964 38.3782C90.7712 37.9955 90.4717 37.7151 90.098 37.5371C89.7243 37.3591 89.298 37.2701 88.8189 37.2701C88.3398 37.2701 87.9134 37.3591 87.5397 37.5371C87.166 37.7151 86.8665 37.9955 86.6414 38.3782C86.4162 38.761 86.2892 39.2594 86.2605 39.8736C86.2509 40.2652 86.2461 40.619 86.2461 40.935C86.2461 41.251 86.2509 41.6092 86.2605 42.0098C86.2988 42.9265 86.5527 43.5897 87.0222 43.9991C87.4918 44.4085 88.0906 44.6132 88.8189 44.6132ZM95.3298 45.6146C95.2244 45.6146 95.143 45.5857 95.0855 45.5278C95.028 45.4699 94.9992 45.3965 94.9992 45.3075V36.5892C94.9992 36.4913 95.028 36.4134 95.0855 36.3555C95.143 36.2977 95.2244 36.2688 95.3298 36.2688H95.991C96.106 36.2688 96.1922 36.2932 96.2497 36.3422C96.3072 36.3912 96.3407 36.429 96.3503 36.4557L101.122 43.2648V36.5892C101.122 36.4913 101.151 36.4134 101.208 36.3555C101.266 36.2977 101.347 36.2688 101.453 36.2688H102.143C102.248 36.2688 102.332 36.2977 102.394 36.3555C102.456 36.4134 102.488 36.4913 102.488 36.5892V45.2941C102.488 45.3832 102.456 45.4588 102.394 45.5211C102.332 45.5834 102.253 45.6146 102.157 45.6146H101.467C101.362 45.6146 101.283 45.5879 101.23 45.5345C101.177 45.4811 101.122 45.4277 101.122 45.4277L96.3647 38.6853V45.3075C96.3647 45.3965 96.3335 45.4699 96.2712 45.5278C96.209 45.5857 96.1251 45.6146 96.0197 45.6146H95.3298ZM105.391 45.6146C105.286 45.6146 105.204 45.5857 105.147 45.5278C105.089 45.4699 105.06 45.3965 105.06 45.3075V36.5892C105.06 36.4913 105.089 36.4134 105.147 36.3555C105.204 36.2977 105.286 36.2688 105.391 36.2688H106.052C106.167 36.2688 106.253 36.2932 106.311 36.3422C106.368 36.3912 106.402 36.429 106.411 36.4557L111.183 43.2648V36.5892C111.183 36.4913 111.212 36.4134 111.269 36.3555C111.327 36.2977 111.408 36.2688 111.514 36.2688H112.204C112.309 36.2688 112.393 36.2977 112.455 36.3555C112.518 36.4134 112.549 36.4913 112.549 36.5892V45.2941C112.549 45.3832 112.518 45.4588 112.455 45.5211C112.393 45.5834 112.314 45.6146 112.218 45.6146H111.528C111.423 45.6146 111.344 45.5879 111.291 45.5345C111.238 45.4811 111.183 45.4277 111.183 45.4277L106.426 38.6853V45.3075C106.426 45.3965 106.395 45.4699 106.332 45.5278C106.27 45.5857 106.186 45.6146 106.081 45.6146H105.391ZM115.452 45.6146C115.347 45.6146 115.265 45.5857 115.208 45.5278C115.15 45.4699 115.122 45.3965 115.122 45.3075V36.5892C115.122 36.4913 115.15 36.4134 115.208 36.3555C115.265 36.2977 115.347 36.2688 115.452 36.2688H121.388C121.494 36.2688 121.575 36.2977 121.632 36.3555C121.69 36.4134 121.719 36.4913 121.719 36.5892V37.0965C121.719 37.1944 121.69 37.2701 121.632 37.3235C121.575 37.3769 121.494 37.4036 121.388 37.4036H116.501V40.3275H121.072C121.177 40.3275 121.259 40.3564 121.316 40.4143C121.374 40.4722 121.402 40.55 121.402 40.6479V41.1419C121.402 41.2309 121.374 41.3044 121.316 41.3622C121.259 41.4201 121.177 41.449 121.072 41.449H116.501V44.4797H121.503C121.608 44.4797 121.69 44.5064 121.747 44.5598C121.805 44.6132 121.834 44.6889 121.834 44.7868V45.3075C121.834 45.3965 121.805 45.4699 121.747 45.5278C121.69 45.5857 121.608 45.6146 121.503 45.6146H115.452ZM127.425 45.7481C126.543 45.7481 125.813 45.5968 125.233 45.2941C124.653 44.9915 124.215 44.5687 123.918 44.0258C123.621 43.4828 123.458 42.8509 123.429 42.1299C123.419 41.765 123.415 41.3734 123.415 40.955C123.415 40.5367 123.419 40.1362 123.429 39.7534C123.458 39.0325 123.621 38.4005 123.918 37.8576C124.215 37.3146 124.653 36.8918 125.233 36.5892C125.813 36.2866 126.543 36.1353 127.425 36.1353C128.086 36.1353 128.666 36.2198 129.164 36.3889C129.662 36.558 130.077 36.785 130.407 37.0698C130.738 37.3547 130.989 37.6729 131.162 38.0244C131.334 38.376 131.43 38.7387 131.449 39.1126C131.459 39.1927 131.432 39.2594 131.37 39.3128C131.308 39.3662 131.234 39.3929 131.147 39.3929H130.357C130.271 39.3929 130.196 39.3707 130.134 39.3262C130.072 39.2817 130.026 39.2016 129.997 39.0859C129.835 38.3916 129.53 37.9154 129.085 37.6573C128.639 37.3992 128.086 37.2701 127.425 37.2701C126.649 37.2701 126.035 37.4726 125.585 37.8776C125.135 38.2826 124.895 38.9301 124.866 39.8202C124.838 40.55 124.838 41.2977 124.866 42.0632C124.895 42.9532 125.135 43.6008 125.585 44.0058C126.035 44.4107 126.649 44.6132 127.425 44.6132C128.086 44.6132 128.639 44.4842 129.085 44.2261C129.53 43.9679 129.835 43.4917 129.997 42.7975C130.026 42.6818 130.072 42.6017 130.134 42.5572C130.196 42.5127 130.271 42.4904 130.357 42.4904H131.147C131.234 42.4904 131.308 42.5149 131.37 42.5638C131.432 42.6128 131.459 42.6773 131.449 42.7574C131.43 43.1313 131.334 43.4962 131.162 43.8522C130.989 44.2083 130.738 44.5287 130.407 44.8135C130.077 45.0983 129.662 45.3253 129.164 45.4944C128.666 45.6635 128.086 45.7481 127.425 45.7481ZM135.977 45.6146C135.881 45.6146 135.802 45.5857 135.74 45.5278C135.677 45.4699 135.646 45.3965 135.646 45.3075V37.457H132.887C132.791 37.457 132.712 37.4281 132.649 37.3702C132.587 37.3124 132.556 37.239 132.556 37.1499V36.5892C132.556 36.4913 132.587 36.4134 132.649 36.3555C132.712 36.2977 132.791 36.2688 132.887 36.2688H139.814C139.92 36.2688 140.004 36.2977 140.066 36.3555C140.128 36.4134 140.159 36.4913 140.159 36.5892V37.1499C140.159 37.239 140.128 37.3124 140.066 37.3702C140.004 37.4281 139.92 37.457 139.814 37.457H137.069V45.3075C137.069 45.3965 137.038 45.4699 136.976 45.5278C136.913 45.5857 136.83 45.6146 136.724 45.6146H135.977ZM145.017 45.7481C144.183 45.7481 143.484 45.6279 142.918 45.3876C142.353 45.1473 141.919 44.838 141.618 44.4597C141.316 44.0814 141.155 43.6831 141.136 43.2648C141.136 43.1936 141.167 43.129 141.229 43.0712C141.292 43.0133 141.366 42.9844 141.452 42.9844H142.185C142.3 42.9844 142.386 43.0111 142.444 43.0645C142.501 43.1179 142.54 43.1802 142.559 43.2514C142.616 43.465 142.736 43.6764 142.918 43.8856C143.1 44.0948 143.361 44.2683 143.702 44.4063C144.042 44.5443 144.48 44.6132 145.017 44.6132C145.841 44.6132 146.447 44.4775 146.835 44.206C147.223 43.9346 147.417 43.5719 147.417 43.1179C147.417 42.8064 147.314 42.5549 147.108 42.3636C146.902 42.1722 146.588 42.0009 146.167 41.8496C145.745 41.6982 145.199 41.5336 144.528 41.3556C143.829 41.1686 143.249 40.9639 142.789 40.7414C142.329 40.5189 141.986 40.243 141.761 39.9136C141.536 39.5843 141.423 39.166 141.423 38.6586C141.423 38.178 141.562 37.7485 141.84 37.3702C142.118 36.992 142.521 36.6916 143.048 36.469C143.575 36.2465 144.207 36.1353 144.945 36.1353C145.539 36.1353 146.059 36.2087 146.504 36.3555C146.95 36.5024 147.321 36.6982 147.618 36.943C147.915 37.1878 148.14 37.4503 148.294 37.7307C148.447 38.0111 148.528 38.2848 148.538 38.5518C148.538 38.6141 148.514 38.6742 148.466 38.7321C148.418 38.7899 148.342 38.8188 148.236 38.8188H147.474C147.407 38.8188 147.338 38.801 147.266 38.7654C147.194 38.7298 147.139 38.6631 147.101 38.5652C147.043 38.2002 146.823 37.8932 146.44 37.6439C146.056 37.3947 145.558 37.2701 144.945 37.2701C144.322 37.2701 143.817 37.3814 143.428 37.6039C143.04 37.8264 142.846 38.1735 142.846 38.6453C142.846 38.9479 142.937 39.1993 143.119 39.3996C143.302 39.5999 143.589 39.7757 143.982 39.927C144.375 40.0783 144.887 40.2385 145.52 40.4076C146.286 40.6034 146.914 40.8104 147.403 41.0285C147.891 41.2465 148.253 41.518 148.488 41.8429C148.723 42.1678 148.84 42.5839 148.84 43.0912C148.84 43.652 148.682 44.1304 148.366 44.5265C148.049 44.9225 147.606 45.2252 147.036 45.4343C146.466 45.6435 145.793 45.7481 145.017 45.7481Z" fill="#00A4F4"/>
<mask id="mask0_990_1797" style="mask-type:luminance" maskUnits="userSpaceOnUse" x="0" y="0" width="69" height="62">
<path d="M0 0.344238H68.3551V61.6557H0V0.344238Z" fill="white"/>
</mask>
<g mask="url(#mask0_990_1797)">
<mask id="mask1_990_1797" style="mask-type:luminance" maskUnits="userSpaceOnUse" x="-1" y="-1" width="71" height="64">
<path d="M-0.823547 -0.420898H69.1785V62.4207H-0.823547V-0.420898Z" fill="white"/>
</mask>
<g mask="url(#mask1_990_1797)">
<path d="M67.0594 25.8127C67.6149 25.8109 68.1075 25.4807 68.2844 24.9916C68.4613 24.5025 68.2834 23.963 67.8418 23.65L35.1056 0.587515C34.6424 0.262495 34.0032 0.262495 33.54 0.587515L0.804631 23.65C0.361744 23.9626 0.18254 24.5026 0.359078 24.9926C0.537046 25.4824 1.03135 25.8123 1.58785 25.8127H7.31827V44.8083C3.17158 45.4448 0.00164715 48.7658 0 52.799C0.00164715 57.2867 3.91692 60.9221 8.74717 60.9228C13.5774 60.9221 17.4927 57.2867 17.4935 52.799C17.4927 48.6809 14.1852 45.3171 9.91006 44.7831V24.6093C9.91006 24.2919 9.7717 23.982 9.53039 23.7579C9.28677 23.5328 8.95737 23.406 8.61375 23.4052H5.4397L34.3232 3.05702L63.2076 23.4052H60.0624C59.7206 23.4052 59.387 23.5337 59.1457 23.7579C58.9034 23.9842 58.7669 24.2901 58.7661 24.6093V37.2047C58.7702 42.9593 58.2983 47.7988 56.9698 51.409C56.3077 53.216 55.4413 54.7101 54.3393 55.8997C53.2349 57.0878 51.8974 57.9851 50.1959 58.6063C49.0229 59.0325 47.7741 59.2502 46.5146 59.2482C43.7235 59.252 40.9686 58.1894 38.9394 56.449C37.1423 54.9067 35.93 52.8717 35.6739 50.5896C36.7541 50.2593 37.7571 49.7417 38.6297 49.0642C40.6285 47.5173 42.3646 44.9231 43.6057 40.668C44.8485 36.4045 45.6169 30.4381 45.6185 21.9738V21.918C45.6177 20.8798 45.4373 19.9488 45.0585 19.134C44.496 17.9077 43.4583 17.0057 42.2386 16.4871C42.2089 16.4741 42.176 16.4664 42.1455 16.4534C41.8968 15.8903 41.4117 15.4252 40.7298 15.2554C39.8593 15.035 38.9632 14.9241 37.8679 14.9065C36.6687 14.8816 35.6748 15.7644 35.6479 16.8784C35.6211 17.9923 36.5715 18.9156 37.7707 18.9405C38.6775 18.9642 39.0324 19.017 39.6089 19.1555C40.2628 19.3177 40.9085 19.1616 41.4191 18.8219C41.5501 18.8923 41.6942 18.9566 41.8037 19.0369C42.1899 19.3109 42.492 19.6741 42.68 20.0903C42.8909 20.5425 43.0267 21.1369 43.0267 21.9187V21.9738C43.0325 33.0766 41.6563 39.6543 39.842 43.4106C38.9369 45.2918 37.9428 46.4623 36.9718 47.2143C36.205 47.8113 35.2977 48.2322 34.3232 48.443C33.3487 48.2325 32.4412 47.8116 31.6746 47.2143C30.2227 46.0936 28.6982 44.0005 27.5411 40.0376C26.3856 36.0832 25.6181 30.3004 25.6197 21.9738V21.9187C25.6197 21.1369 25.7564 20.5425 25.9664 20.0903C26.244 19.5135 26.6632 19.144 27.2413 18.8334C27.7495 19.1662 28.3894 19.3161 29.0367 19.1555C29.614 19.017 29.9682 18.9642 30.8758 18.9405C32.075 18.9156 33.0253 17.9923 32.9985 16.8784C32.9717 15.7644 31.9778 14.8816 30.7786 14.9065C29.6824 14.9241 28.7863 15.035 27.9158 15.2554C27.2331 15.4252 26.7472 15.8926 26.4985 16.4572C26.0595 16.6373 25.6442 16.8635 25.2606 17.1312C24.5278 17.6547 23.9521 18.3444 23.5888 19.134C23.2091 19.9488 23.0287 20.8798 23.0279 21.918V21.9738C23.0337 33.2587 24.3868 40.1049 26.4383 44.3922C27.4653 46.5319 28.6875 48.0367 30.0168 49.0642C30.9193 49.7669 31.9616 50.2982 33.0846 50.6279C33.3613 53.6329 34.9253 56.2891 37.1835 58.2192C39.6789 60.3521 43.0202 61.6527 46.5146 61.6557C48.0547 61.6557 49.6219 61.3995 51.1406 60.8471C53.2143 60.0951 54.9389 58.9445 56.3027 57.4695C58.3543 55.254 59.5995 52.3607 60.3498 48.9578C61.0984 45.5512 61.3562 41.6105 61.3578 37.2047V25.8127H67.0594ZM8.74717 51.0938C9.76027 51.0955 10.5811 51.8579 10.5829 52.799C10.5806 53.7399 9.76008 54.5022 8.74717 54.5043C7.73444 54.5017 6.91414 53.7398 6.91143 52.799C6.9139 51.858 7.735 51.0953 8.74717 51.0938ZM7.31827 47.2511V48.9249C5.57889 49.4796 4.32129 50.9951 4.32047 52.799C4.32047 55.0702 6.30255 56.9114 8.74758 56.9114C11.1926 56.9114 13.1747 55.0702 13.1747 52.799C13.1739 50.9041 11.787 49.325 9.91006 48.8484V47.1898C12.8097 47.701 14.9067 50.0574 14.9017 52.799C14.9049 54.3157 14.2562 55.7708 13.0998 56.8414C11.9469 57.9158 10.3802 58.5186 8.74717 58.5161C7.11412 58.5186 5.54748 57.9158 4.39459 56.8414C3.2379 55.7709 2.58897 54.3158 2.59179 52.799C2.58912 51.2821 3.238 49.8268 4.39459 48.7559C5.20071 48.0129 6.21273 47.492 7.31827 47.2511Z" fill="#00A4F4"/>
</g>
</g>
</svg>
